<?xml version="1.0" encoding="UTF-8"?>
<svg width="150px" height="41px" viewBox="0 0 150 41" version="1.1" xmlns="http://www.w3.org/2000/svg" xmlns:xlink="http://www.w3.org/1999/xlink">
    <!-- Generator: sketchtool 60.1 (101010) - https://sketch.com -->
    <title>2BD18B7D-B8E8-4A63-8512-C46342767001</title>
    <desc>Created with sketchtool.</desc>
    <defs>
        <polygon id="path-1" points="0.0101946136 0.0755046321 18.781678 0.0755046321 18.781678 21.579839 0.0101946136 21.579839"></polygon>
        <polygon id="path-3" points="0 40.4311926 149.872726 40.4311926 149.872726 0.142377329 0 0.142377329"></polygon>
        <polygon id="path-5" points="0 40.4311926 149.872726 40.4311926 149.872726 0.142377329 0 0.142377329"></polygon>
        <polygon id="path-7" points="0 40.4311926 149.872726 40.4311926 149.872726 0.142377329 0 0.142377329"></polygon>
        <polygon id="path-9" points="0 40.4311926 149.872726 40.4311926 149.872726 0.142377329 0 0.142377329"></polygon>
        <polygon id="path-11" points="0 40.4311926 149.872726 40.4311926 149.872726 0.142377329 0 0.142377329"></polygon>
        <polygon id="path-13" points="0 40.4311926 149.872726 40.4311926 149.872726 0.142377329 0 0.142377329"></polygon>
        <polygon id="path-15" points="0 40.4311926 149.872726 40.4311926 149.872726 0.142377329 0 0.142377329"></polygon>
        <polygon id="path-17" points="0 40.4311926 149.872726 40.4311926 149.872726 0.142377329 0 0.142377329"></polygon>
        <polygon id="path-19" points="0 40.2888152 149.872726 40.2888152 149.872726 0 0 0"></polygon>
    </defs>
    <g id="Final" stroke="none" stroke-width="1" fill="none" fill-rule="evenodd">
        <g id="Home-page-" transform="translate(-480.000000, -2073.000000)">
            <g id="Group-27" transform="translate(448.000000, 2062.000000)">
                <rect id="Rectangle-Copy-27" opacity="0.199567522" x="0" y="0" width="214" height="65"></rect>
                <g id="Esteshari" transform="translate(32.000000, 11.000000)">
                    <polygon id="Fill-1" fill="#133C50" fill-rule="nonzero" points="14.1720011 37.2088513 19.1219697 37.2088513 19.1219697 32.2588827 14.1720011 32.2588827"></polygon>
                    <g id="Group-17" transform="translate(0.000000, 0.105667)">
                        <path d="M27.302713,2.71290822 L26.9222134,14.825647 C26.9222134,20.6990839 22.1605103,25.7966387 16.2868254,25.7966387 C10.4131405,25.7966387 5.93123116,21.1430829 5.93123116,15.269646 L6.12123295,2.32968004 L1.04798643,2.32968004 L1.04798643,15.3963965 C1.04798643,23.8966207 7.78635316,30.6798835 16.2868254,30.6798835 C24.7870495,30.6798835 31.2347085,23.7706143 31.7198828,15.2101154 L32.0601994,2.55664042 L27.302713,2.71290822 Z" id="Fill-2" fill="#01ADB9" fill-rule="nonzero"></path>
                        <g id="Group-6" transform="translate(25.300501, 18.851354)">
                            <g id="Fill-4-Clipped">
                                <mask id="mask-2" fill="white">
                                    <use xlink:href="#path-1"></use>
                                </mask>
                                <g id="path-1"></g>
                                <path d="M13.835182,0.0755046321 L13.835182,5.35140321 C13.835182,10.0223221 11.2158361,13.7417438 7.20645078,15.570077 C5.54753168,16.3268597 3.73656152,16.6909885 1.91318915,16.6909885 L0.0101946136,16.6909885 L0.0101946136,21.5799382 L2.70246556,21.5799382 C11.5826933,21.5799382 18.781678,14.3809535 18.781678,5.50072578 L18.781678,0.0755046321 L13.835182,0.0755046321 Z" id="Fill-4" fill="#01ADB9" fill-rule="nonzero" mask="url(#mask-2)"></path>
                            </g>
                        </g>
                        <g id="Fill-7-Clipped">
                            <mask id="mask-4" fill="white">
                                <use xlink:href="#path-3"></use>
                            </mask>
                            <g id="path-3"></g>
                            <polygon id="Fill-7" fill="#133C50" fill-rule="nonzero" mask="url(#mask-4)" points="0 5.43985574 7.57998043 5.43985574 7.57998043 0.366361174 0 0.366361174"></polygon>
                        </g>
                        <g id="Fill-9-Clipped">
                            <mask id="mask-6" fill="white">
                                <use xlink:href="#path-5"></use>
                            </mask>
                            <g id="path-3"></g>
                            <polygon id="Fill-9" fill="#133C50" fill-rule="nonzero" mask="url(#mask-6)" points="25.8841487 5.43985574 33.4641291 5.43985574 33.4641291 0.366361174 25.8841487 0.366361174"></polygon>
                        </g>
                        <g id="Fill-10-Clipped">
                            <mask id="mask-8" fill="white">
                                <use xlink:href="#path-7"></use>
                            </mask>
                            <g id="path-3"></g>
                            <polygon id="Fill-10" fill="#133C50" fill-rule="nonzero" mask="url(#mask-8)" points="37.8225125 20.8927568 45.4024929 20.8927568 45.4024929 15.8195102 37.8225125 15.8195102"></polygon>
                        </g>
                        <g id="Fill-11-Clipped">
                            <mask id="mask-10" fill="white">
                                <use xlink:href="#path-9"></use>
                            </mask>
                            <g id="path-3"></g>
                            <polygon id="Fill-11" fill="#133C50" fill-rule="nonzero" mask="url(#mask-10)" points="18.0491789 40.4311926 22.9988994 40.4311926 22.9988994 35.481224 18.0491789 35.481224"></polygon>
                        </g>
                        <g id="Fill-12-Clipped">
                            <mask id="mask-12" fill="white">
                                <use xlink:href="#path-11"></use>
                            </mask>
                            <g id="path-3"></g>
                            <polygon id="Fill-12" fill="#133C50" fill-rule="nonzero" mask="url(#mask-12)" points="75.0538864 9.06856764 78.0802725 12.0567552 81.9113142 8.18751494 78.0420737 4.27982777 75.0156876 7.3064622 71.989301 4.27982777 68.1582594 8.18751494 72.0274999 12.0567552"></polygon>
                        </g>
                        <g id="Fill-13-Clipped">
                            <mask id="mask-14" fill="white">
                                <use xlink:href="#path-13"></use>
                            </mask>
                            <g id="path-3"></g>
                            <polygon id="Fill-13" fill="#133C50" fill-rule="nonzero" mask="url(#mask-14)" points="77.7356155 2.8241064 75.0155636 0.142253306 72.3721569 2.8241064 75.053762 5.50595948"></polygon>
                        </g>
                        <g id="Fill-14-Clipped">
                            <mask id="mask-16" fill="white">
                                <use xlink:href="#path-15"></use>
                            </mask>
                            <g id="path-3"></g>
                            <polygon id="Fill-14" fill="#133C50" fill-rule="nonzero" mask="url(#mask-16)" points="100.338388 9.79645314 103.288377 12.6313495 107.119171 8.80030795 103.211483 4.93106762 100.30019 7.80441078 97.3502007 4.93106762 93.5191591 8.80030795 97.4268464 12.6313495"></polygon>
                        </g>
                        <g id="Fill-15-Clipped">
                            <mask id="mask-18" fill="white">
                                <use xlink:href="#path-17"></use>
                            </mask>
                            <g id="path-3"></g>
                            <path d="M132.595039,11.0989329 C133.514538,16.5387886 133.744475,18.6843703 133.744475,20.2931845 C133.744475,22.668455 132.786528,23.6646003 130.526351,23.6646003 C129.300516,23.6646003 128.266173,23.4728622 127.078537,23.0514352 C127.653007,20.9827471 127.882944,18.4544334 127.882944,15.5044446 L122.596132,15.5044446 C122.596132,18.6843703 122.481535,20.7912571 121.830172,22.05529 C121.255453,23.1665276 120.221109,23.6646003 118.650494,23.6646003 C117.501057,23.6646003 116.313422,23.3962165 115.202433,22.8981439 C115.700753,20.8679027 115.968889,18.3777877 115.968889,15.5044446 L110.720523,15.5044446 C110.720523,18.6843703 110.490586,20.7912571 109.915868,22.05529 C109.417795,23.1280808 108.61314,23.6646003 107.310661,23.6646003 C105.701598,23.6646003 103.862847,23.1280808 102.445275,22.2088293 C102.866702,20.2549857 102.981546,17.9945596 102.981546,15.5044446 L97.7331806,15.5044446 C97.7331806,18.6843703 97.6183361,20.8679027 96.6988366,22.1319356 C95.9710751,23.1665276 94.7067945,23.6646003 92.714752,23.6646003 C91.2971796,23.6646003 89.9178065,23.3580177 88.5771277,22.5918094 C89.0370017,20.6379658 89.2666908,18.2626953 89.2666908,15.5044446 L89.2666908,12.8228395 L83.9801263,12.8228395 L83.9801263,15.5044446 C83.9801263,18.6843703 83.8650338,20.7912571 83.2139181,22.05529 C82.6391996,23.1665276 81.6048555,23.6646003 80.0342402,23.6646003 C78.9998961,23.6646003 78.0037509,23.4728622 77.0076056,23.0514352 C77.5441253,21.0209459 77.8122611,18.4926322 77.8122611,15.5044446 L72.5254483,15.5044446 C72.5254483,18.6843703 72.4106042,20.7912571 71.75924,22.05529 C71.184522,23.1665276 70.1501779,23.6646003 68.5795626,23.6646003 C67.430374,23.6646003 66.2427386,23.3962165 65.1319973,22.8981439 C65.6295737,20.8679027 65.8979575,18.3777877 65.8979575,15.5044446 L60.6495919,15.5044446 C60.6495919,18.6843703 60.4196549,20.7912571 59.8449364,22.05529 C59.346864,23.1280808 58.5424569,23.6646003 57.239977,23.6646003 C57.2335279,23.6646003 57.2273267,23.6658404 57.2208776,23.6660885 C57.2146769,23.6658404 57.2084757,23.6646003 57.2020266,23.6646003 C54.8267558,23.6646003 53.9839019,22.5918094 53.9839019,20.2165389 L53.945703,1.90468124 L48.2374639,1.90468124 L48.2759107,21.8256011 C48.2759107,26.8058311 51.3022968,29.6791742 57.239977,29.6791742 L57.2402254,29.6791742 C59.9218301,29.6791742 61.9138725,28.7596746 63.2163525,27.1121655 C65.553176,28.7596746 67.2770827,29.6791742 69.4608633,29.6791742 C71.8358857,29.6791742 73.5979912,28.7596746 74.9004711,27.2654568 C77.1224501,28.8360722 78.8081579,29.6791742 80.9150449,29.6791742 C83.4051598,29.6791742 85.2826058,28.6445822 86.5850857,26.9591223 C88.4238368,28.7596746 90.4543257,29.6791742 92.714752,29.6791742 C96.5457936,29.6791742 99.0741074,28.5679365 100.644723,26.4992485 C102.598566,28.5297377 104.93539,29.6791742 107.310661,29.6791742 C109.992514,29.6791742 111.984556,28.7596746 113.287036,27.1121655 C115.623859,28.7596746 117.347766,29.6791742 119.531547,29.6791742 C121.830172,29.6791742 123.554078,28.8360722 124.856558,27.3805493 C127.308474,29.0278103 129.760142,29.6407274 131.752433,29.6407274 C136.425832,29.6407274 139.452466,26.5758942 139.452466,21.9022467 C139.452466,19.4503305 139.107685,16.2324541 138.303278,11.0989329 L132.595039,11.0989329 Z" id="Fill-15" fill="#133C50" fill-rule="nonzero" mask="url(#mask-18)"></path>
                        </g>
                        <g id="Fill-16-Clipped">
                            <mask id="mask-20" fill="white">
                                <use xlink:href="#path-19"></use>
                            </mask>
                            <g id="path-3"></g>
                            <polygon id="Fill-16" fill="#133C50" fill-rule="nonzero" mask="url(#mask-20)" points="144.164734 29.6792238 149.872974 29.6792238 149.872974 1.90473085 144.164734 1.90473085"></polygon>
                        </g>
                    </g>
                </g>
            </g>
        </g>
    </g>
</svg>