<?xml version="1.0" encoding="UTF-8"?>
<svg width="80px" height="61px" viewBox="0 0 80 61" version="1.1" xmlns="http://www.w3.org/2000/svg" xmlns:xlink="http://www.w3.org/1999/xlink">
    <!-- Generator: sketchtool 60.1 (101010) - https://sketch.com -->
    <title>85980840-D245-439C-B919-645F5A884E5C</title>
    <desc>Created with sketchtool.</desc>
    <defs>
        <linearGradient x1="-88.9063484%" y1="115.884937%" x2="-88.9063484%" y2="-8.64389967%" id="linearGradient-1">
            <stop stop-color="#9C6AF7" offset="11%"></stop>
            <stop stop-color="#42B0FF" offset="100%"></stop>
        </linearGradient>
        <linearGradient x1="-11.8560916%" y1="115.884937%" x2="-11.8560916%" y2="-8.64389967%" id="linearGradient-2">
            <stop stop-color="#9C6AF7" offset="11%"></stop>
            <stop stop-color="#42B0FF" offset="100%"></stop>
        </linearGradient>
        <linearGradient x1="84.1973039%" y1="168.178103%" x2="84.1973039%" y2="-11.5846247%" id="linearGradient-3">
            <stop stop-color="#9C6AF7" offset="11%"></stop>
            <stop stop-color="#42B0FF" offset="100%"></stop>
        </linearGradient>
        <linearGradient x1="188.331072%" y1="1266.39307%" x2="188.331072%" y2="43.7949903%" id="linearGradient-4">
            <stop stop-color="#9C6AF7" offset="11%"></stop>
            <stop stop-color="#42B0FF" offset="100%"></stop>
        </linearGradient>
        <linearGradient x1="61.8724559%" y1="1237.5848%" x2="61.8724559%" y2="45.183175%" id="linearGradient-5">
            <stop stop-color="#9C6AF7" offset="11%"></stop>
            <stop stop-color="#42B0FF" offset="100%"></stop>
        </linearGradient>
        <linearGradient x1="831.343282%" y1="1266.33331%" x2="831.343282%" y2="43.7929235%" id="linearGradient-6">
            <stop stop-color="#9C6AF7" offset="11%"></stop>
            <stop stop-color="#42B0FF" offset="100%"></stop>
        </linearGradient>
        <linearGradient x1="705.563094%" y1="1266.39307%" x2="705.563094%" y2="43.7949903%" id="linearGradient-7">
            <stop stop-color="#9C6AF7" offset="11%"></stop>
            <stop stop-color="#42B0FF" offset="100%"></stop>
        </linearGradient>
    </defs>
    <g id="Final" stroke="none" stroke-width="1" fill="none" fill-rule="evenodd">
        <g id="Home-page-" transform="translate(-1515.000000, -20.000000)" fill-rule="nonzero">
            <g id="final-logo" transform="translate(1515.000000, 20.000000)">
                <polygon id="Path" fill="#515151" points="7.59473684 50.6883478 7.46842105 50.8103478 6.07894737 58.5971304 5.90526316 58.5971304 4.38947368 50.9270435 4.26315789 50.8103478 3.83157895 50.8103478 3.70526316 50.9270435 2.18421053 58.5971304 2.01052632 58.5971304 0.621052632 50.8103478 0.494736842 50.6883478 0.126315789 50.6883478 0 50.874 1.48947368 59.2018261 1.61578947 59.3185217 2.56842105 59.3185217 2.69473684 59.2018261 4.04210526 52.2425217 5.38421053 59.2018261 5.51052632 59.3185217 6.47368421 59.3185217 6.6 59.1965217 8.07368421 50.874 7.94736842 50.6883478"></polygon>
                <path d="M18.1842105,50.6883478 L17.8947368,50.6883478 L17.8684211,50.6883478 L17.8052632,50.7413913 L17.8052632,50.7095652 L17.4842105,50.7095652 L17.4842105,50.7413913 L17.4210526,50.6883478 L17.4210526,50.6883478 L17.1368421,50.6883478 L17.0105263,50.7997391 L14.8684211,59.1222609 L14.9947368,59.3185217 L15.3315789,59.3185217 L15.4578947,59.2124348 L16.0894737,56.7618261 L19.2473684,56.7618261 L19.8789474,59.2124348 L20.0052632,59.3185217 L20.3473684,59.3185217 L20.4684211,59.1222609 L18.3105263,50.7997391 L18.1842105,50.6883478 Z M19.0526316,56.0404348 L16.2684211,56.0404348 L17.4894737,51.3991304 L17.8210526,51.3991304 L19.0526316,56.0404348 Z" id="Shape" fill="#515151"></path>
                <path d="M34.5736842,53.2344348 C34.6279758,52.5454088 34.4294593,51.8602632 34.0157895,51.3089565 C33.5815796,50.8683022 32.9776082,50.6414943 32.3631579,50.6883478 L29.8473684,50.6883478 L29.7210526,50.8421739 L29.7210526,59.1646957 L29.8473684,59.3185217 L30.2157895,59.3185217 L30.3473684,59.1646957 L30.3473684,55.8706957 L32.5263158,55.8706957 L34.0368421,59.2389565 L34.1526316,59.3185217 L34.5631579,59.3185217 L34.6789474,59.0957391 L33.1842105,55.7646087 C34.1052632,55.494087 34.5736842,54.6347826 34.5736842,53.2344348 Z M33.9421053,53.2821739 C33.9879209,53.7888391 33.8515666,54.2952279 33.5578947,54.7090435 C33.2464805,55.0316675 32.8082387,55.1970511 32.3631579,55.159913 L30.3473684,55.159913 L30.3473684,51.4097391 L32.3631579,51.4097391 C32.8103683,51.3724798 33.2511893,51.5354438 33.5684211,51.8553043 C33.8517762,52.2736101 33.9837205,52.777424 33.9421053,53.2821739 L33.9421053,53.2821739 Z" id="Shape" fill="#515151"></path>
                <path d="M47.8947368,50.6883478 L47.6105263,50.6883478 L47.6105263,50.6883478 L47.5473684,50.7413913 L47.5473684,50.7095652 L47.2263158,50.7095652 L47.2263158,50.7413913 L47.1631579,50.6883478 L47.1631579,50.6883478 L46.8421053,50.6883478 L46.7210526,50.7997391 L44.5789474,59.1222609 L44.7,59.3185217 L45.0421053,59.3185217 L45.1631579,59.2124348 L45.7894737,56.7565217 L48.9473684,56.7565217 L49.5789474,59.2071304 L49.7052632,59.3132174 L50.0421053,59.3132174 L50.1684211,59.1169565 L48.0315789,50.7997391 L47.8947368,50.6883478 Z M48.7578947,56.0404348 L45.9894737,56.0404348 L47.2105263,51.3991304 L47.5421053,51.3991304 L48.7578947,56.0404348 Z" id="Shape" fill="#515151"></path>
                <path d="M63.9,51.0649565 C63.415152,50.7245288 62.8323904,50.5548579 62.2421053,50.5822609 C61.6489615,50.5511098 61.0628046,50.7230987 60.5789474,51.0702609 C60.1321601,51.4555644 59.8218177,51.9768497 59.6947368,52.5554783 C59.5033031,53.3683531 59.4166241,54.2027047 59.4368421,55.037913 C59.41696,55.8725232 59.5000526,56.7063893 59.6842105,57.5203478 C59.8069189,58.0833491 60.1148007,58.5880398 60.5578947,58.9525217 C61.0514745,59.2945058 61.6442039,59.4606488 62.2421053,59.4246087 C62.5973081,59.4284051 62.9513905,59.3837985 63.2947368,59.292 L64.1157895,60.8833043 L64.2842105,60.9363478 L64.6473684,60.7241739 L64.7,60.5066957 L63.9105263,58.9949565 C64.3498982,58.6705776 64.6627284,58.2014133 64.7947368,57.6688696 C65.006387,56.8016742 65.098481,55.9092256 65.0684211,55.0166957 C65.0885003,54.1794409 65.0000334,53.343127 64.8052632,52.5289565 C64.6679717,51.9553738 64.3504412,51.4418606 63.9,51.0649565 L63.9,51.0649565 Z M64.4263158,55.0750435 C64.4380076,55.818216 64.3656105,56.56031 64.2105263,57.2869565 C64.1337911,57.7146119 63.9102118,58.1014266 63.5789474,58.3796522 L63.5789474,58.3796522 C63.1802497,58.6380201 62.7098495,58.7607236 62.2368421,58.7297391 C61.773628,58.7600116 61.3128534,58.6411301 60.9210526,58.3902609 C60.5833579,58.1110809 60.3510939,57.7234417 60.2631579,57.2922609 C59.9930705,55.8230813 59.9930705,54.316397 60.2631579,52.8472174 C60.3473522,52.3979552 60.5768505,51.9894596 60.9157895,51.6855652 C61.3020139,51.4147857 61.7671065,51.282196 62.2368421,51.3089565 C62.7026303,51.2805788 63.1638117,51.415518 63.5421053,51.6908696 C63.8838261,51.9949417 64.1183854,52.4025833 64.2105263,52.8525217 C64.3621489,53.5831514 64.4310105,54.3287626 64.4157895,55.0750435 L64.4263158,55.0750435 Z" id="Shape" fill="#515151"></path>
                <path d="M77.7473684,50.7997391 L77.6263158,50.6883478 L77.3684211,50.6883478 L77.3684211,50.6883478 L77.3052632,50.7413913 L77.3052632,50.7095652 L76.9842105,50.7095652 L76.9842105,50.7413913 L76.9210526,50.6883478 L76.9210526,50.6883478 L76.6368421,50.6883478 L76.5157895,50.7997391 L74.3684211,59.1222609 L74.4947368,59.3185217 L74.7368421,59.3185217 L74.8631579,59.2124348 L75.4947368,56.7618261 L78.6526316,56.7618261 L79.2894737,59.2124348 L79.4105263,59.3185217 L79.7526316,59.3185217 L79.8736842,59.1222609 L77.7473684,50.7997391 Z M78.4894737,56.0404348 L75.7052632,56.0404348 L76.9263158,51.3991304 L77.2578947,51.3991304 L78.4894737,56.0404348 Z" id="Shape" fill="#515151"></path>
                <path d="M67.8210526,5.002 C62.2811166,5.00785175 57.7923742,9.53409691 57.7894737,15.1173913 L57.7894737,25.2805217 C57.895474,29.2508709 61.1195823,32.4139578 65.0605263,32.4139578 C69.0014703,32.4139578 72.2255787,29.2508709 72.3315789,25.2805217 L72.3315789,15.2765217 C72.2481983,12.8075337 70.2380762,10.849458 67.7868421,10.849458 C65.335608,10.849458 63.3254859,12.8075337 63.2421053,15.2765217 L63.2421053,21.7478261 L67.0315789,21.7478261 L67.0315789,15.2765217 C67.0643929,14.880707 67.3927326,14.5762925 67.7868421,14.5762925 C68.1809516,14.5762925 68.5092913,14.880707 68.5421053,15.2765217 L68.5421053,25.2805217 C68.4693772,27.1653439 66.9321258,28.6555483 65.0605263,28.6555483 C63.1889268,28.6555483 61.6516754,27.1653439 61.5789474,25.2805217 L61.5789474,15.1173913 C61.5129158,12.8253346 62.688503,10.6783237 64.6477995,9.51265285 C66.6070959,8.34698198 69.0402725,8.34698198 70.9995689,9.51265285 C72.9588654,10.6783237 74.1344526,12.8253346 74.0684211,15.1173913 L74.0684211,29.4391304 C74.0712143,31.8710005 73.1149772,34.2043084 71.4102188,35.925393 C69.7054603,37.6464776 67.3919344,38.6142465 64.9789474,38.6156522 L64.9789474,42.4347826 C72.0873354,42.4289374 77.8491894,36.6243637 77.8579003,29.4603478 L77.8579003,15.1386087 C77.860688,12.4530261 76.8048068,9.87631979 74.9225335,7.97533659 C73.0402602,6.07435338 70.4857809,5.00481213 67.8210526,5.002 Z" id="Path" fill="url(#linearGradient-1)"></path>
                <path d="M50.5578947,29.4603478 C50.5520941,34.5142593 46.4883505,38.6098061 41.4736842,38.6156522 L41.4736842,42.4347826 C48.581218,42.4289327 54.341564,36.6235058 54.3473684,29.4603478 L54.3473684,5.002 L50.5578947,5.002 L50.5578947,29.4603478 Z" id="Path" fill="url(#linearGradient-2)"></path>
                <path d="M47.0631579,30.7015652 L47.0631579,15.1173913 C47.0631579,9.53374446 42.571867,5.00730435 37.0315789,5.00730435 C31.4912909,5.00730435 27,9.53374446 27,15.1173913 L27,26.8930435 L22.1052632,26.8930435 L22.1052632,15.1173913 C22.1886258,11.4492436 20.2945577,8.02320211 17.1556768,6.16444576 C14.0167959,4.30568941 10.1253094,4.30568941 6.98642848,6.16444576 C3.84754755,8.02320211 1.9534795,11.4492436 2.03684211,15.1173913 L2.03684211,30.7015652 L47.0631579,30.7015652 Z M30.7894737,26.8824348 L30.7894737,15.1173913 C30.7894737,11.642992 33.5841594,8.82643478 37.0315789,8.82643478 C40.4789985,8.82643478 43.2736842,11.642992 43.2736842,15.1173913 L43.2736842,26.8930435 L30.7894737,26.8930435 L30.7894737,26.8824348 Z M18.3105263,26.8824348 L18.3105263,26.8824348 L5.82105263,26.8824348 L5.82105263,15.1173913 C5.75502106,12.8253346 6.93060828,10.6783237 8.88990474,9.51265285 C10.8492012,8.34698198 13.2823778,8.34698198 15.2416742,9.51265285 C17.2009707,10.6783237 18.3765579,12.8253346 18.3105263,15.1173913 L18.3105263,26.8824348 Z" id="Shape" fill="url(#linearGradient-3)"></path>
                <path d="M34.5789474,3.90930435 C35.6515425,3.90930435 36.5210526,3.03298934 36.5210526,1.952 L36.5210526,1.952 C36.4672785,0.912006854 35.6148964,0.096554324 34.5815789,0.096554324 C33.5482615,0.096554324 32.6958794,0.912006854 32.6421053,1.952 L32.6421053,1.952 C32.6421053,3.03092125 33.5084082,3.90638044 34.5789474,3.90930435 L34.5789474,3.90930435 Z" id="Path" fill="url(#linearGradient-4)"></path>
                <rect id="Rectangle" fill="url(#linearGradient-5)" x="37.5473684" y="0" width="3.87894737" height="3.90930435" rx="1.93947368"></rect>
                <path d="M9.61052632,3.90930435 C10.130149,3.91640106 10.6309187,3.71332285 11.0008456,3.34548507 C11.3707725,2.9776473 11.5789951,2.47573742 11.5789474,1.952 L11.5789474,1.952 C11.5251732,0.912006854 10.6727911,0.096554324 9.63947368,0.096554324 C8.60615625,0.096554324 7.75377413,0.912006854 7.7,1.952 L7.7,1.952 C7.69985981,3.02068148 8.55028367,3.89192742 9.61052632,3.90930435 L9.61052632,3.90930435 Z" id="Path" fill="url(#linearGradient-6)"></path>
                <path d="M14.5210526,3.90930435 C15.5915918,3.90638044 16.4578947,3.03092125 16.4578947,1.952 L16.4578947,1.952 C16.4041206,0.912006854 15.5517385,0.096554324 14.5184211,0.096554324 C13.4851036,0.096554324 12.6327215,0.912006854 12.5789474,1.952 L12.5789474,1.952 C12.5789474,3.03298934 13.4484575,3.90930435 14.5210526,3.90930435 L14.5210526,3.90930435 Z" id="Path" fill="url(#linearGradient-7)"></path>
                <path d="M34.5789474,3.90930435 C35.6515425,3.90930435 36.5210526,3.03298934 36.5210526,1.952 L36.5210526,1.952 C36.4672785,0.912006854 35.6148964,0.096554324 34.5815789,0.096554324 C33.5482615,0.096554324 32.6958794,0.912006854 32.6421053,1.952 L32.6421053,1.952 C32.6421053,3.03092125 33.5084082,3.90638044 34.5789474,3.90930435 L34.5789474,3.90930435 Z" id="Path" fill="#42B0FF"></path>
                <rect id="Rectangle" fill="#42B0FF" x="37.5473684" y="0" width="3.87894737" height="3.90930435" rx="1.93947368"></rect>
                <path d="M9.61052632,3.90930435 C10.130149,3.91640106 10.6309187,3.71332285 11.0008456,3.34548507 C11.3707725,2.9776473 11.5789951,2.47573742 11.5789474,1.952 L11.5789474,1.952 C11.5251732,0.912006854 10.6727911,0.096554324 9.63947368,0.096554324 C8.60615625,0.096554324 7.75377413,0.912006854 7.7,1.952 L7.7,1.952 C7.69985981,3.02068148 8.55028367,3.89192742 9.61052632,3.90930435 L9.61052632,3.90930435 Z" id="Path" fill="#42B0FF"></path>
                <path d="M14.5210526,3.90930435 C15.5915918,3.90638044 16.4578947,3.03092125 16.4578947,1.952 L16.4578947,1.952 C16.4041206,0.912006854 15.5517385,0.096554324 14.5184211,0.096554324 C13.4851036,0.096554324 12.6327215,0.912006854 12.5789474,1.952 L12.5789474,1.952 C12.5789474,3.03298934 13.4484575,3.90930435 14.5210526,3.90930435 L14.5210526,3.90930435 Z" id="Path" fill="#42B0FF"></path>
            </g>
        </g>
    </g>
</svg>