<?xml version="1.0" encoding="UTF-8"?>
<svg width="174px" height="50px" viewBox="0 0 174 50" version="1.1" xmlns="http://www.w3.org/2000/svg" xmlns:xlink="http://www.w3.org/1999/xlink">
    <!-- Generator: sketchtool 60.1 (101010) - https://sketch.com -->
    <title>87A6AE75-D405-4224-96B9-FF24C0550496</title>
    <desc>Created with sketchtool.</desc>
    <g id="Final" stroke="none" stroke-width="1" fill="none" fill-rule="evenodd">
        <g id="Home-page-" transform="translate(-473.000000, -2197.000000)">
            <g id="Group-28" transform="translate(448.000000, 2190.000000)">
                <rect id="Rectangle-Copy-28" opacity="0.199567522" x="0" y="0" width="214" height="65"></rect>
                <g id="Sahha-w-hana-Logo" transform="translate(25.000000, 7.000000)" fill-rule="nonzero">
                    <path d="M173.640679,24.7193211 C173.640679,38.3095332 162.619859,49.3303536 149.029646,49.3303536 C135.439434,49.3303536 124.418614,38.3095332 124.418614,24.7193211 C124.418614,11.1291089 135.439434,0.108288543 149.029646,0.108288543 C162.624781,0.108288543 173.640679,11.1241867 173.640679,24.7193211" id="Path" fill="#FF8561"></path>
                    <path d="M156.6,24.217256 L154.995361,24.1877228 L155.019972,24.3501556 C155.285771,26.0926167 154.764017,27.84 153.592532,29.1493069 C153.395644,29.365884 153.183989,29.5726167 152.957567,29.7596605 C150.742574,31.5857992 147.464385,31.5168883 145.328147,29.5972277 C143.812107,28.2386987 143.108232,26.146761 143.492164,24.1434229 L143.521697,23.9859123 L141.917058,23.9563791 L141.897369,24.074512 C141.503593,26.5848373 142.38959,29.0902405 144.269873,30.7785573 C145.436436,31.8269873 146.878642,32.4668741 148.443904,32.6293069 L148.448826,40.5639038 C148.448826,40.7755587 148.532504,40.972447 148.68017,41.1250354 C148.827836,41.2727016 149.029646,41.3563791 149.236379,41.3563791 L149.236379,41.3563791 C149.428345,41.3563791 149.615389,41.2874682 149.758133,41.1594908 C149.93041,41.0069024 150.028854,40.7903253 150.028854,40.5639038 L150.023932,32.6293069 C151.485827,32.4717963 152.844356,31.9057426 153.96662,30.9803678 C154.252107,30.7441018 154.522829,30.4881471 154.768939,30.2075813 C156.196379,28.6127864 156.870721,26.4765488 156.609844,24.3403112 L156.6,24.217256 Z" id="Path" fill="#FFFFFF"></path>
                    <path d="M158.982348,16.2235926 C159.361358,15.2096181 159.223536,14.1316549 158.578727,13.0241584 C158.470438,12.8321924 157.500764,11.178331 155.664781,10.8583876 C155.339915,10.8042433 155.005205,10.7894767 154.665573,10.8239321 C154.173352,9.92809052 153.336577,9.19960396 152.243847,8.70738331 C150.944385,8.12164074 149.472645,7.94936351 147.991061,8.20531825 C145.574257,8.6237058 144.186195,9.87886846 143.43802,10.892843 C142.261612,10.5384441 140.893239,10.9962093 139.923564,12.0790948 C138.968656,13.1472136 138.348458,14.9733522 139.465799,16.8979349 C139.554399,17.0554455 140.341952,18.4287412 142.182857,18.4878076 L142.202546,21.4165205 L140.947383,21.761075 C140.528996,21.8792079 140.277963,22.3123621 140.396096,22.7307496 C140.49454,23.0802263 140.809562,23.31157 141.159038,23.31157 C141.227949,23.31157 141.29686,23.3017256 141.370693,23.2820368 L143.472475,22.7012164 C147.301952,21.642942 151.352928,21.6478642 155.182405,22.7110608 L157.038076,23.2278925 C157.303876,23.3017256 157.579519,23.2328147 157.786252,23.0506931 C157.89454,22.9522489 157.973296,22.8242716 158.012673,22.6815276 C158.066818,22.4797171 158.042207,22.26314 157.93884,22.0810184 C157.835474,21.8988967 157.663197,21.7659972 157.461386,21.7069307 L155.605714,21.190099 L155.586025,21.1851768 L155.576181,19.1769165 C155.881358,19.0637058 156.97901,18.615785 157.879774,17.7888543 C158.396605,17.3163225 158.770693,16.7847242 158.982348,16.2235926 M153.996153,20.8160113 C150.639208,20.1318246 147.114908,20.1958133 143.782574,21.0030552 L143.753041,16.4598586 C143.753041,16.2482037 143.669364,16.0513154 143.516775,15.9036492 C143.369109,15.755983 143.172221,15.6772277 142.960566,15.6772277 L142.955644,15.6772277 C142.517567,15.6821499 142.168091,16.0365488 142.168091,16.4746252 L142.173013,16.9176238 C141.262405,16.8585573 140.903083,16.2482037 140.863706,16.1743706 L140.839095,16.1300707 C139.95802,14.6189533 140.814484,13.4622348 141.099972,13.1472136 C141.533126,12.6599151 142.09918,12.3744272 142.611089,12.3744272 C142.561867,12.4974823 142.517567,12.6254597 142.473267,12.7485149 C142.448656,12.8321924 142.428967,12.9109477 142.414201,12.9798586 C142.409279,13.014314 142.399434,13.0438472 142.394512,13.0684583 C142.360057,13.1915134 142.335446,13.3637907 142.315757,13.5016124 L142.310835,13.5459123 C142.271457,13.7821782 142.266535,14.0824328 142.266535,14.0922772 C142.251768,14.3137765 142.330523,14.5352758 142.483112,14.6927864 C142.6357,14.850297 142.852277,14.9388967 143.078699,14.9339745 C143.477397,14.9241301 143.81703,14.5844979 143.846563,14.1661103 L143.876096,13.8166337 C143.895785,13.5656011 143.945007,13.3194908 144.033607,13.0832249 C144.338784,12.251372 145.367525,10.272645 148.25686,9.77057992 C149.428345,9.56876945 150.585064,9.70166902 151.594116,10.154512 C152.258614,10.4547666 152.765601,10.8386987 153.100311,11.3063083 C152.568713,11.5721075 152.037115,11.9511174 151.505516,12.4236492 L150.708119,13.2801132 C150.560453,13.4327016 150.48662,13.634512 150.491542,13.8461669 C150.496464,14.0578218 150.585064,14.25471 150.737652,14.397454 C151.052673,14.6977086 151.554738,14.682942 151.854993,14.3629986 L152.578557,13.58529 C153.607298,12.6697595 154.54744,12.275983 155.374371,12.418727 C156.5114,12.6106931 157.18082,13.7821782 157.200509,13.8166337 C157.60413,14.5057426 157.702574,15.1160962 157.495842,15.6723055 C157.170976,16.5435361 156.211146,17.1489675 155.55157,17.4738331 L155.541726,15.8052051 C155.541726,15.5935502 155.458048,15.396662 155.30546,15.2489958 C155.152871,15.1013296 154.946139,15.0176521 154.744328,15.0225743 C154.306252,15.0274965 153.956775,15.3818953 153.956775,15.8199717 L153.996153,20.8160113 Z" id="Shape" fill="#FFFFFF"></path>
                    <path d="M5.12401697,31.0148232 C3.50953324,31.0148232 2.26421499,30.4930693 1.38806223,29.4446393 C0.664497878,28.5487977 0.305176803,27.4216124 0.305176803,26.053239 L0.305176803,13.6197454 L2.21499293,12.6205375 L2.21499293,25.9941726 C2.21499293,28.1599434 3.25850071,29.2428289 5.35043847,29.2428289 L6.34964639,29.2428289 L6.34964639,31.009901 L5.12401697,31.009901 L5.12401697,31.0148232 Z" id="Path" fill="#282828"></path>
                    <path d="M14.9635078,29.2477511 L15.9627157,29.2477511 L15.9627157,31.0148232 L14.7370863,31.0148232 C13.0241584,31.0148232 11.7443847,30.4340028 10.8879208,29.2772843 C9.99207921,30.438925 8.7024611,31.0148232 7.00922207,31.0148232 L5.78359264,31.0148232 L5.78359264,29.2477511 L6.78280057,29.2477511 C8.87473833,29.2477511 9.91824611,28.1648656 9.91824611,25.9941726 L9.91824611,19.806959 L11.8280622,18.8077511 L11.8280622,25.9941726 C11.8280622,28.1599434 12.87157,29.2477511 14.9635078,29.2477511 M10.5433663,15.0422631 C9.76565771,15.0422631 9.37188119,14.6435644 9.37188119,13.8461669 C9.37188119,13.0881471 9.7607355,12.704215 10.5433663,12.704215 C11.2866195,12.704215 11.655785,13.0832249 11.655785,13.8461669 C11.655785,14.6435644 11.2816973,15.0422631 10.5433663,15.0422631" id="Shape" fill="#282828"></path>
                    <path d="M18.2712306,22.6569165 C18.6699293,21.0768883 19.4279491,19.8266478 20.5403678,18.9061952 C21.6527864,17.9857426 22.9620934,17.5230552 24.4633663,17.5230552 C26.3830269,17.5230552 27.982744,18.1973975 29.2526733,19.546082 C30.4487694,20.8406223 31.0492786,22.4846393 31.0492786,24.478133 L31.0492786,26.1024611 C31.0492786,27.7169448 30.5521358,28.9721075 29.5676945,29.8679491 C28.7309194,30.6308911 27.6185007,31.009901 26.2304385,31.009901 L23.4050919,31.009901 C22.7405941,31.009901 22.120396,30.9163791 21.5494201,30.724413 C20.9784441,30.9163791 20.3779349,31.009901 19.7528147,31.009901 L15.3917397,31.009901 L15.3917397,29.2428289 L19.044017,29.2428289 C18.0152758,28.2140877 17.5033663,26.9540028 17.5033663,25.4478076 C17.4984441,24.3501556 17.7593211,23.4198586 18.2712306,22.6569165 M21.5789533,28.9868741 C23.3066478,28.4158982 24.1729562,27.219802 24.1729562,25.3936634 C24.1729562,24.4978218 23.9416124,23.7841018 23.4740028,23.2426591 C23.0063932,22.7012164 22.3763508,22.430495 21.5789533,22.430495 C20.7815559,22.430495 20.141669,22.6962942 19.6691372,23.2278925 C19.1916832,23.7594908 18.9554173,24.4830552 18.9554173,25.3936634 C18.9554173,27.219802 19.8266478,28.4158982 21.5789533,28.9868741 M29.1640736,25.8809618 L29.1640736,24.4830552 C29.1640736,22.7701273 28.6127864,21.4214427 27.5102122,20.4320792 C26.6143706,19.6543706 25.5708628,19.2605941 24.3747666,19.2605941 C22.7750495,19.2605941 21.5592645,19.8758699 20.7224894,21.1113437 C21.0079774,21.0522772 21.2934653,21.0276662 21.5789533,21.0276662 C22.7947383,21.0276662 23.7742574,21.4312871 24.5175106,22.238529 C25.2607638,23.0457709 25.6299293,24.1138897 25.6299293,25.4478076 C25.6299293,26.9490806 25.1180198,28.2140877 24.0892786,29.242845 L26.0876945,29.242845 C28.1353324,29.2477511 29.1640736,28.125488 29.1640736,25.8809618" id="Shape" fill="#282828"></path>
                    <path d="M42.9954738,29.9565488 C42.1980764,30.414314 41.1693352,30.6407355 39.9141726,30.6407355 C38.2603112,30.6407355 36.9657709,30.0057709 36.0354738,28.7309194 C35.2380764,27.6480339 34.8393777,26.2796605 34.8393777,24.6257992 C34.8393777,22.6273833 35.370976,21.0719661 36.4341726,19.949703 C37.3644696,18.9603395 38.5999434,18.4681188 40.1405941,18.4681188 C41.7206223,18.4681188 42.9364074,18.9603395 43.7928713,19.949703 C44.5361245,20.8061669 44.90529,21.9481188 44.90529,23.3706365 L44.90529,29.6464498 C44.90529,31.4135219 44.5361245,32.8754173 43.7928713,34.0222914 C43.0496181,35.1740877 41.9962659,35.9074965 40.6278925,36.2323621 C40.1701273,36.3652617 39.6779066,36.4292504 39.1463083,36.4292504 C38.0437341,36.4292504 36.9706931,36.1634512 35.9222631,35.6318529 L35.9222631,33.9484583 C36.9116266,34.4800566 37.8911457,34.7458557 38.8608204,34.7458557 C39.638529,34.7458557 40.3227157,34.5735785 40.9133805,34.2339463 C42.2472984,33.5694484 42.9413296,32.1469307 42.9954738,29.9565488 M42.9954738,23.5429137 C42.9954738,21.3180764 42.045488,20.2056577 40.1455163,20.2056577 C39.0823197,20.2056577 38.2406223,20.594512 37.6204243,21.3771429 C37.0002263,22.1548515 36.6950495,23.2328147 36.6950495,24.6011881 C36.6950495,25.9301839 36.9903819,26.9933805 37.5810467,27.7809335 C38.1717115,28.5684866 38.9691089,28.9622631 39.9781612,28.9622631 C41.4794342,28.9622631 42.4884866,28.5438755 43.000396,27.7071004 L43.000396,23.5429137 L42.9954738,23.5429137 Z" id="Shape" fill="#282828"></path>
                    <path d="M68.1184158,29.2477511 L69.0880905,29.2477511 L69.0880905,31.0148232 L67.8624611,31.0148232 C65.8295898,31.0148232 64.4119943,30.2174257 63.6145969,28.6177086 C62.6252334,29.6464498 61.4094484,30.1583593 59.9623197,30.1583593 C58.3281471,30.1583593 57.0336068,29.5430835 56.0836209,28.3026874 C55.2862235,27.2591796 54.8875248,25.9547949 54.8875248,24.3944554 C54.8875248,22.5683168 55.4191231,21.1064215 56.4823197,20.0038472 C57.4126167,19.0341726 58.564413,18.5517963 59.9327864,18.5517963 C61.1682603,18.5517963 62.2068458,18.9111174 63.0436209,19.6346818 L63.0436209,18.0940311 L64.9534371,17.0948232 L64.9534371,25.9941726 C64.9534371,28.1599434 66.0067893,29.2477511 68.1184158,29.2477511 M63.0436209,21.8004526 C62.2068458,20.7914003 61.1879491,20.2893352 59.9918529,20.2893352 C59.041867,20.2893352 58.2641584,20.6732673 57.6685714,21.4460537 C57.0680622,22.213918 56.7727298,23.2082037 56.7727298,24.4239887 C56.7727298,25.6594625 57.0729844,26.648826 57.6685714,27.387157 C58.2690806,28.1304102 59.0517115,28.4995757 60.0213861,28.4995757 C61.25686,28.4995757 62.2856011,27.958133 63.1026874,26.8752475 C63.0633098,26.5356153 63.0436209,26.2599717 63.0436209,26.0483168 L63.0436209,21.8004526 Z M59.3371994,14.8995191 C58.5594908,14.8995191 58.1657143,14.5008204 58.1657143,13.7034229 C58.1657143,12.9454031 58.5545686,12.561471 59.3371994,12.561471 C60.0804526,12.561471 60.4496181,12.9404809 60.4496181,13.7034229 C60.4496181,14.5008204 60.0755304,14.8995191 59.3371994,14.8995191 M62.5858557,14.8995191 C61.8081471,14.8995191 61.4143706,14.5008204 61.4143706,13.7034229 C61.4143706,12.9454031 61.8032249,12.561471 62.5858557,12.561471 C63.3291089,12.561471 63.6982744,12.9404809 63.6982744,13.7034229 C63.6982744,14.5008204 63.3291089,14.8995191 62.5858557,14.8995191" id="Shape" fill="#282828"></path>
                    <path d="M86.5422348,29.2477511 L87.5414427,29.2477511 L87.5414427,31.0148232 L86.5127016,31.0148232 C84.9326733,31.0148232 83.6775106,30.8327016 82.732447,30.4733805 C81.7923055,30.1140594 80.921075,29.4741726 80.1236775,28.5635644 C77.6921075,30.1977369 74.8766054,31.0148232 71.6820934,31.0148232 L68.5171146,31.0148232 L68.5171146,29.2477511 L71.7116266,29.2477511 C75.8561245,29.2477511 79.0900141,27.84 81.4083734,25.0294201 C79.7151344,21.7955304 77.6724187,20.1810467 75.2753041,20.1810467 C73.6411315,20.1810467 72.0414144,21.0079774 70.4859972,22.6618388 L70.4859972,20.7815559 C72.0463366,19.2409052 73.6706648,18.473041 75.3639038,18.473041 L75.4229703,18.473041 C78.4058274,18.473041 80.9949081,20.4862235 83.1803678,24.5175106 L83.1803678,25.6889958 C82.589703,26.4470156 81.9645827,27.1065912 81.3000849,27.6578784 C81.9104385,28.2485431 82.5995474,28.6620085 83.3674116,28.8982744 C84.1303536,29.1246959 85.1935502,29.2477511 86.5422348,29.2477511" id="Path" fill="#282828"></path>
                    <path d="M95.0970297,29.1296181 C95.8009052,26.2009052 97.0265347,23.7496464 98.773918,21.7709194 C100.732956,19.5657709 103.031627,18.4631966 105.674851,18.4631966 C107.801245,18.4631966 109.494484,19.1966054 110.749646,20.6585007 C111.812843,21.9136634 112.344441,23.4641584 112.344441,25.3050636 L112.344441,26.1024611 C112.344441,27.7169448 111.852221,28.9721075 110.862857,29.8679491 C110.026082,30.6308911 108.913663,31.009901 107.525601,31.009901 L95.9190382,31.009901 C94.2061103,31.009901 92.9263366,30.4290806 92.0698727,29.2723621 C91.1740311,30.4340028 89.884413,31.009901 88.191174,31.009901 L86.9655446,31.009901 L86.9655446,29.2428289 L87.9647525,29.2428289 C90.0566902,29.2428289 91.100198,28.1599434 91.100198,25.9892504 L91.100198,21.8841301 L93.0100141,20.8849222 L93.0100141,25.9892504 C93.0149364,27.7809335 93.7089675,28.8293635 95.0970297,29.1296181 M110.439547,25.8809618 L110.439547,25.3099859 C110.439547,23.7151909 109.937482,22.430495 108.92843,21.4608204 C108.071966,20.6240453 106.998925,20.2056577 105.704385,20.2056577 C103.479547,20.2056577 101.50082,21.2491655 99.7731259,23.3411033 C98.463819,24.9358982 97.4744554,26.9047808 96.8099576,29.242845 L107.387779,29.242845 C109.420651,29.2477511 110.439547,28.125488 110.439547,25.8809618" id="Shape" fill="#282828"></path>
                </g>
            </g>
        </g>
    </g>
</svg>