<?xml version="1.0" encoding="UTF-8"?>
<svg width="80px" height="83px" viewBox="0 0 80 83" version="1.1" xmlns="http://www.w3.org/2000/svg" xmlns:xlink="http://www.w3.org/1999/xlink">
    <!-- Generator: sketchtool 60.1 (101010) - https://sketch.com -->
    <title>AA44C3FA-EC8A-4936-BC46-83FA0BBFC769</title>
    <desc>Created with sketchtool.</desc>
    <defs>
        <polygon id="path-1" points="0 0.0995204258 52.7806524 0.0995204258 52.7806524 52.2448117 0 52.2448117"></polygon>
    </defs>
    <g id="Final" stroke="none" stroke-width="1" fill="none" fill-rule="evenodd">
        <g id="Home-page-" transform="translate(-610.000000, -818.000000)">
            <g id="Group-5" transform="translate(610.000000, 818.000000)">
                <polygon id="Path-Copy-2" fill="#FFFFFF" fill-rule="nonzero" points="33.6327221 19.40125 38.6203821 25.2804167 45.6783916 16.4616667 54.7126437 28.22 26.5747126 28.22"></polygon>
                <g id="Group-3" transform="translate(0.000000, 29.787778)">
                    <mask id="mask-2" fill="white">
                        <use xlink:href="#path-1"></use>
                    </mask>
                    <g id="Clip-2"></g>
                    <path d="M49.3628372,48.840318 C48.7954453,49.4009964 47.0803743,50.4076691 45.2363506,48.840318 L31.2965633,35.0909531 L28.6143471,32.4544901 L28.3306512,32.1728766 C29.7749214,31.1407185 31.0644485,29.9059517 32.1218607,28.515724 C32.2508134,28.3755543 32.3539755,28.2353847 32.4571377,28.0952151 L32.8826816,28.515724 L36.8802154,32.4544901 L39.5624317,35.0909531 L49.3628372,44.7499138 C50.5105162,45.8852877 50.5105162,47.7062184 49.3628372,48.840318 M20.2066308,32.8100112 C19.4587051,32.9246954 18.6849889,32.9896832 17.9112727,32.9896832 C9.46487057,32.9896832 2.54011036,26.1455832 2.54011036,17.7991198 C2.54011036,9.45265648 9.46487057,2.60983078 17.9112727,2.60983078 C21.6766916,2.60983078 25.1326241,3.96055615 27.8019451,6.19052728 C28.7304045,6.9678315 29.5557018,7.84707726 30.2907323,8.81552187 C31.1805059,10.0005922 31.9026411,11.3258322 32.3926613,12.7530137 C32.7150431,13.6067741 32.9342627,14.4860199 33.0890059,15.390751 C33.2179586,16.1807979 33.282435,16.9835875 33.282435,17.7991198 C33.282435,18.3215702 33.2566444,18.8312779 33.2050634,19.3282429 C33.1147965,20.2329741 32.9342627,21.1122198 32.6892526,21.9532375 C32.2894992,23.3549336 31.6834215,24.6801736 30.89681,25.8907294 C30.2907323,26.8464313 29.5814924,27.7269513 28.7819856,28.515724 C26.8992761,30.3634143 24.5523369,31.7523678 21.9217018,32.4544901 C21.3672051,32.6061281 20.786918,32.7335551 20.2066308,32.8100112 M51.2068608,43.004165 L49.8399622,41.6534396 L43.1860027,35.0909531 L40.5037864,32.4544901 L36.5062526,28.515724 L33.8627222,25.9034721 L33.8627222,25.8907294 C34.5074857,24.6419455 35.0104012,23.3294482 35.332783,21.9532375 C35.5391073,21.0994771 35.6809553,20.2329741 35.7454316,19.3282429 C35.7970127,18.8312779 35.8228033,18.3215702 35.8228033,17.7991198 C35.8228033,16.9835875 35.7712222,16.1807979 35.6551647,15.390751 C35.5391073,14.4860199 35.332783,13.6067741 35.0748776,12.7530137 C34.6622289,11.3640603 34.0819418,10.0388203 33.3340161,8.81552187 C32.7795194,7.88530534 32.1476512,7.00605958 31.4255161,6.19052728 C30.0199316,4.61043345 28.3435464,3.25970808 26.460837,2.2530354 C24.5523369,1.22087734 22.4504079,0.53277196 20.2066308,0.252432732 C19.4587051,0.150491194 18.6849889,0.0995204258 17.9112727,0.0995204258 C17.3438808,0.0995204258 16.7764889,0.12500581 16.2219923,0.175976579 C15.3064281,0.265175424 14.4166544,0.41808773 13.5526713,0.634713497 C5.76392796,2.54611732 -0.000257905408,9.50362725 -0.000257905408,17.7991198 C-0.000257905408,27.5345367 8.00770501,35.4987193 17.9112727,35.4987193 C19.2265903,35.4987193 20.5161173,35.3585497 21.7540633,35.0909531 C23.2886004,34.7723858 24.745766,34.2499354 26.1126646,33.5618301 L27.6600971,35.0909531 L43.4568033,50.6497803 C46.8869453,53.6697983 50.1881345,51.6564529 51.2068608,50.6497803 C51.5421379,50.3057276 51.8258338,49.9361895 52.0450534,49.5284233 C52.5221784,48.712891 52.7671886,47.8081599 52.7800838,46.9034288 C52.7929791,45.9999719 52.5866548,45.0952407 52.1482156,44.2784342 C51.9161007,43.8209715 51.593719,43.3864457 51.2068608,43.004165" id="Fill-1" fill="#4C83E3" mask="url(#mask-2)"></path>
                </g>
                <path d="M24.0755832,76.5598148 C22.6043848,76.5598148 21.4171019,75.3928605 21.4171019,73.9455834 L31.4057645,73.9455834 L28.734378,71.3338889 L18.7586207,71.3338889 L18.7586207,73.9455834 C18.7586207,76.8388691 21.1331865,79.1727778 24.0755832,79.1727778 L36.7356322,79.1727778 L34.0642457,76.5598148 L24.0755832,76.5598148 Z" id="Fill-4" fill="#4C83E3"></path>
                <g id="Group-8" transform="translate(13.287356, 0.000000)" fill="#4C83E3">
                    <path d="M56.1667734,13.2977358 L50.1267208,13.2977358 C48.6709788,13.2977358 47.4961694,12.1015145 47.4961694,10.6480414 L47.4961694,4.5640343 L56.1667734,13.2977358 Z M60.6616962,5.33578995 L51.9910922,5.33578995 L47.1130794,0.422278968 C46.8704557,0.177889678 46.5256747,0.0364011416 46.1808937,0.0364011416 L5.38180727,0.0364011416 C2.47032316,0.0364011416 0.120704416,2.41598107 0.107934748,5.33578995 L0.107934748,26.2760933 C0.848575441,26.1217422 1.6019858,25.9931162 2.36816583,25.9159407 C2.4958625,25.9030781 2.62355917,25.8902155 2.75125584,25.8902155 L2.75125584,5.33578995 C2.75125584,3.86945421 3.92606522,2.68609555 5.38180727,2.68609555 L44.865618,2.68609555 L44.865618,10.6480414 C44.865618,13.5678502 47.2280064,15.9474302 50.1267208,15.9474302 L58.0311448,15.9474302 L58.0311448,68.9799061 C58.0311448,70.4462418 56.8435657,71.6296005 55.3878237,71.6296005 L41.2134932,71.6296005 C41.4178079,71.9254401 41.5965832,72.2341424 41.7498192,72.5557073 C42.0307519,73.0959362 42.2606059,73.674753 42.4266116,74.2792949 L55.3878237,74.2792949 C58.2993078,74.2792949 60.6616962,71.899715 60.6616962,68.9799061 L60.6616962,14.622583 C60.6616962,14.2624303 60.5212299,13.9280029 60.2786062,13.6836136 L54.6216437,7.98548436 L60.6616962,7.98548436 C62.1174383,7.99834695 63.2922476,9.18170562 63.2922476,10.6480414 L63.2922476,74.2792949 C63.2922476,75.7456306 62.1174383,76.9289893 60.6616962,76.9289893 L42.7841622,76.9289893 L42.7841622,76.9804397 C42.7713926,77.8679587 42.6309262,78.7426151 42.3755329,79.5786837 L60.6616962,79.5786837 C63.5604106,79.5786837 65.9227991,77.2119664 65.9227991,74.2792949 L65.9227991,10.6480414 C65.9227991,7.71536988 63.5604106,5.34865255 60.6616962,5.33578995 L60.6616962,5.33578995 Z" id="Fill-6"></path>
                </g>
                <polygon id="Fill-9" fill="#4C83E3" points="20.3218391 7.83888889 22.6666667 7.83888889 22.6666667 5.48722222 20.3218391 5.48722222"></polygon>
                <polygon id="Fill-11" fill="#4C83E3" points="25.7931034 7.83888889 28.137931 7.83888889 28.137931 5.48722222 25.7931034 5.48722222"></polygon>
                <polygon id="Fill-12" fill="#4C83E3" points="30.4827586 7.83888889 32.8275862 7.83888889 32.8275862 5.48722222 30.4827586 5.48722222"></polygon>
                <polygon id="Fill-13" fill="#4C83E3" points="20.3218391 18.0294444 57.0574713 18.0294444 57.0574713 15.6777778 20.3218391 15.6777778"></polygon>
                <polygon id="Fill-14" fill="#4C83E3" points="20.3218391 25.0844444 68 25.0844444 68 22.7327778 20.3218391 22.7327778"></polygon>
                <path d="M67.2183908,36.0588889 L35.954023,36.0588889 C36.0934263,36.2643743 36.2328297,36.4698598 36.372233,36.6753452 C36.7397509,37.2233064 37.0819228,37.8055151 37.3860755,38.4105556 L67.2183908,38.4105556 L67.2183908,36.0588889 Z" id="Fill-15" fill="#4C83E3"></path>
                <path d="M68,42.33 L39.0804598,42.33 C39.2735141,42.9889211 39.4150873,43.6251208 39.5051793,44.2499597 C39.5309199,44.3862882 39.5437902,44.5339775 39.5695308,44.6816667 L68,44.6816667 L68,42.33 Z" id="Fill-16" fill="#4C83E3"></path>
                <path d="M68,49.385 L39.4046699,49.385 C39.4046699,49.5105744 39.3917015,49.624733 39.3787331,49.7388916 C39.3268594,50.3553479 39.2360806,51.0402994 39.0804598,51.7366667 L68,51.7366667 L68,49.385 Z" id="Fill-17" fill="#4C83E3"></path>
                <polygon id="Fill-18" fill="#4C83E3" points="68 55.6561111 39.0804598 55.6561111 41.7673291 58.0077778 68 58.0077778"></polygon>
                <polygon id="Fill-19" fill="#4C83E3" points="67.2183908 64.2788889 67.2183908 61.9272222 45.3333333 61.9272222 47.9825771 64.2788889"></polygon>
                <path d="M68,29.0038889 L29.7011494,29.0038889 C30.9072104,29.6774245 32.0362887,30.4651187 33.0883845,31.3555556 L68,31.3555556 L68,29.0038889 Z" id="Fill-20" fill="#4C83E3"></path>
                <path d="M27.0776116,48.9369469 C26.9388668,49.8603933 26.6613773,50.7332399 26.2703692,51.5428368 C25.5388058,53.1367306 24.3783949,54.4902753 22.9531075,55.4516716 C22.0197335,56.0841691 20.9602279,56.5522173 19.8250432,56.8178663 C19.106093,56.9949656 18.3493032,57.0835152 17.5799003,57.0835152 C13.66982,57.0835152 10.3147187,54.7179744 8.76329977,51.3530875 L11.6264876,51.3530875 C12.3075984,51.3530875 12.8625776,50.7838397 12.8625776,50.1007424 C12.8625776,49.417645 12.3075984,48.8610472 11.6264876,48.8610472 L8.01912318,48.8610472 C7.95605737,48.3550492 7.89299156,47.8617011 7.89299156,47.355703 C7.89299156,46.862355 7.95605737,46.4196067 8.01912318,45.9262586 L14.2878649,45.9262586 C14.9689757,45.9262586 15.536568,45.3696608 15.536568,44.6865634 C15.536568,43.9908161 14.9689757,43.4342183 14.2878649,43.4342183 L8.76329977,43.4342183 C10.2516529,40.0693314 13.66982,37.6405408 17.5799003,37.6405408 C18.3493032,37.6405408 19.106093,37.7290905 19.8250432,37.9061898 C20.4178619,38.0453392 21.0106805,38.2477384 21.5530465,38.5007375 C23.3693419,39.3229843 24.8829214,40.7018289 25.8793612,42.4095723 C26.3586614,43.2191691 26.7244431,44.0920157 26.9388668,45.0281121 C27.1280643,45.7491593 27.2163564,46.5081563 27.2163564,47.2924533 C27.2163564,47.8617011 27.1659038,48.405649 27.0776116,48.9369469 M29.6002441,48.9369469 C29.6633099,48.4435988 29.7011494,47.9376008 29.7011494,47.4189528 C29.7011494,46.596706 29.6254705,45.7997591 29.4741125,45.0281121 C29.2849151,44.1173156 29.0074255,43.2318191 28.6290306,42.4095723 C27.960533,40.9168781 27.0019327,39.6012832 25.8289086,38.5007375 C24.5675923,37.336942 23.0792391,36.4387955 21.4143017,35.8948476 C20.2160513,35.4900492 18.9168955,35.275 17.5799003,35.275 C10.8696979,35.275 5.47126437,40.7524287 5.47126437,47.4189528 C5.47126437,54.1487266 10.9327637,59.5755556 17.5799003,59.5755556 C19.6989116,59.5755556 21.6917913,59.0189577 23.4324077,58.0562965 C24.6558844,57.3871141 25.7532296,56.4889676 26.6739904,55.4516716 C27.6704303,54.313176 28.4650595,52.9963161 28.9821992,51.5428368 C29.2849151,50.70794 29.4993388,49.8350934 29.6002441,48.9369469" id="Fill-21" fill="#4C83E3"></path>
                <ellipse id="Oval-Copy-15" fill-opacity="0.25" fill="#4C83E3" cx="17.9770115" cy="47.8172222" rx="15.6321839" ry="15.6777778"></ellipse>
            </g>
        </g>
    </g>
</svg>