<?xml version="1.0" encoding="UTF-8"?>
<svg width="80px" height="80px" viewBox="0 0 80 80" version="1.1" xmlns="http://www.w3.org/2000/svg" xmlns:xlink="http://www.w3.org/1999/xlink">
    <!-- Generator: sketchtool 60.1 (101010) - https://sketch.com -->
    <title>40A76BAC-5B70-4FA1-962D-7CB580A2D1AC</title>
    <desc>Created with sketchtool.</desc>
    <g id="Final" stroke="none" stroke-width="1" fill="none" fill-rule="evenodd">
        <g id="Home-page-" transform="translate(-1223.000000, -815.000000)" fill="#4C83E3">
            <g id="Group-21" transform="translate(1223.000000, 815.000000)">
                <g id="noun_writer_2588337" fill-rule="nonzero">
                    <path d="M71.988,42.9878185 L65.4373333,42.0535045 L61.4466667,40.4398107 C64.684662,38.8937229 66.7466514,35.6222304 66.7466667,32.0309848 L66.7466667,24.0225791 L66.7466667,24.0225791 C69.6921853,24.0225791 72.08,21.6322555 72.08,18.683642 C72.08,15.7350284 69.6921853,13.3447049 66.7466667,13.3447049 L66.7466667,13.3447049 L66.7466667,9.34050202 C66.7358859,5.9748618 64.2185432,3.14617559 60.88,2.74824942 C59.7445509,1.02818856 57.8208538,-0.00464654556 55.7613333,1.57172887e-05 L49.416,1.57172887e-05 C44.2640832,0.00664963868 40.0892778,4.18584157 40.0826667,9.34317149 L40.0826667,13.3473743 C37.137148,13.3473743 34.7493333,15.7376979 34.7493333,18.6863114 C34.7493333,21.634925 37.137148,24.0252486 40.0826667,24.0252486 L40.0826667,32.0336542 C40.0908727,35.5957197 42.1244908,38.8422592 45.324,40.4011034 L40.8373333,42.2150073 C40.8038665,42.2323452 40.7713734,42.2515051 40.74,42.2724009 L34.7573333,43.2641084 C31.6128566,43.7790365 28.8822238,45.7189411 27.3586667,48.520292 L24.144,54.9403639 L24.144,54.9497071 L24.144,54.9577155 L16.9413333,69.8693668 C16.9413333,69.8800447 16.9226667,69.9080741 16.916,69.9200867 C16.558484,69.0946145 15.999059,68.3725653 15.2893333,67.8205497 L8.09733333,49.3011116 L14.9106667,31.7600337 C15.2485969,31.5777888 15.5621881,31.3535597 15.844,31.0926666 L18.94,40.3864213 C19.0857692,40.8258 19.4485788,41.1581777 19.8986667,41.2646765 C19.9988659,41.287414 20.1012591,41.2990517 20.204,41.2993796 C20.5575931,41.299304 20.8966764,41.158631 21.1466667,40.9083024 L35.2946667,26.7441023 C35.621556,26.4169872 35.7558921,25.9437327 35.6496801,25.4934207 C35.543468,25.0431086 35.2118608,24.6799841 34.7733333,24.5337823 L23.7586667,20.8592588 L17.38,14.4738901 C16.8510728,13.9732004 16.0235939,13.9732004 15.4946667,14.4738901 L8.896,21.0808247 C8.37549075,21.6020383 8.37549075,22.4469255 8.896,22.968139 L9.83866667,23.9117961 L9.36666667,24.3842921 C8.3456071,25.414098 7.86289532,26.8617805 8.06133333,28.2990677 L0.848,46.8652215 C-0.281888673,48.2921978 -0.281888673,50.3100254 0.848,51.7370016 L7.56533333,69.0351579 C6.97936319,69.909539 6.6665352,70.9386816 6.66666667,71.9915943 L1.33333333,71.9915943 C0.596953667,71.9915943 0,72.5891752 0,73.3263286 L0,78.6652657 C0,79.4024191 0.596953667,80 1.33333333,80 L40.8,80 C41.5671999,79.9967761 42.3071878,79.7150766 42.8826667,79.2071678 L43.2826667,79.6075881 C43.5327649,79.8587335 43.8724199,80 44.2266667,80 L48,80 C48.7363797,80 49.3333333,79.4024191 49.3333333,78.6652657 L49.3333333,74.6610629 L49.288,74.6610629 C49.2500423,74.3920414 49.1293441,74.1415278 48.9426667,73.9443106 L43.808,68.8042489 C43.4860961,67.8878049 42.7661488,67.1671011 41.8506667,66.8448589 L38.6666667,63.6575135 L38.6666667,57.3095173 C38.6658793,56.710142 38.2660649,56.1847948 37.6890151,56.0249051 C37.1119652,55.8650153 36.4992098,56.1097983 36.1906667,56.6234638 L34.5693333,59.3236313 L34.0186667,59.0046298 L32.916,57.9008045 C32.1660405,57.1442623 31.1447013,56.7198193 30.08,56.7222342 L30.0546667,56.7222342 L27.088,55.0071006 L29.7133333,49.7602602 C30.8485655,47.6959878 32.868737,46.2687177 35.192,45.8895308 L40,45.0886902 L40,54.6400487 C40.0003425,55.1577124 40.2996635,55.6284939 40.768,55.8479832 C40.9446809,55.9318068 41.1378144,55.975125 41.3333333,55.974783 C41.645356,55.974543 41.9475536,55.8655243 42.188,55.6664594 L48.744,50.1940488 L52,58.8871732 L52,80 L54.6666667,80 L54.6666667,58.8871732 L57.9226667,50.1967183 L64.4786667,55.6691288 C64.7194785,55.8672328 65.0216397,55.9752946 65.3333333,55.974783 C65.5288376,55.9749909 65.7219419,55.9316792 65.8986667,55.8479832 C66.3670032,55.6284939 66.6663242,55.1577124 66.6666667,54.6400487 L66.6666667,44.9231832 L71.6,45.6292576 C74.8776371,46.1150624 77.3118478,48.9207461 77.3333333,52.237527 L77.3333333,62.6484544 L70.6666667,62.6484544 L70.6666667,57.3095173 L68,57.3095173 L68,59.9789858 L58.6666667,59.9789858 C57.930287,59.9789858 57.3333333,60.5765667 57.3333333,61.3137201 L57.3333333,73.3263286 C57.3333333,74.063482 57.930287,74.6610629 58.6666667,74.6610629 L68,74.6610629 L68,80 L70.6666667,80 L70.6666667,65.3179229 L77.3333333,65.3179229 L77.3333333,80 L80,80 L80,52.237527 C79.9719082,47.59886 76.5711006,43.6726894 71.988,42.9878185 Z M22.6666667,71.9915943 L18.904,71.9915943 C18.9696741,71.7974079 19.0503627,71.6086391 19.1453333,71.4270017 C19.8446714,70.1320043 21.196099,69.3241888 22.6666667,69.3221258 L28,69.3221258 L28,77.3305314 L24,77.3305314 L24,73.3263286 C24,72.5891752 23.4030463,71.9915943 22.6666667,71.9915943 Z M22.6666667,66.6526572 C22.2362309,66.65524 21.8070785,66.6999438 21.3853333,66.7861306 L25.908,57.4056181 L27.092,58.0956758 C25.6897936,59.6724494 25.7623696,62.0711466 27.2573333,63.5600779 L30.3413333,66.6526572 L22.6666667,66.6526572 Z M34.112,66.6526572 L31.972,64.5170824 L33.8666667,62.620425 L37.888,66.6526572 L34.112,66.6526572 Z M30.0853333,62.6217597 L29.1426667,61.6781026 C28.8914798,61.4276417 28.7502811,61.0873491 28.7502811,60.7324433 C28.7502811,60.3775375 28.8914798,60.037245 29.1426667,59.7867841 C29.3243009,59.5989085 29.5611514,59.4740456 29.8186667,59.43041 C29.9086106,59.4263152 29.9979318,59.41335 30.0853333,59.3917027 C30.4411982,59.3935395 30.7815627,59.5377097 31.0306667,59.792123 L31.9733333,60.7357802 L30.0853333,62.6217597 Z M9.708,67.1865509 L4.304,53.2746155 C5.0878744,53.2161015 5.8365833,52.9252247 6.45466667,52.4390719 L11.976,66.6526572 C11.1896807,66.6590313 10.4147499,66.8414522 9.708,67.1865509 L9.708,67.1865509 Z M11.8493333,32.2739064 L6.45466667,46.1551429 C5.83695328,45.669236 5.08874437,45.3783731 4.30533333,45.3195992 L9.75333333,31.306224 C10.3582456,31.8032833 11.0795314,32.1381241 11.8493333,32.2792453 L11.8493333,32.2739064 Z M2.66666667,49.3011116 C2.66666667,48.5639582 3.26362033,47.9663773 4,47.9663773 C4.73637967,47.9663773 5.33333333,48.5639582 5.33333333,49.3011116 C5.33333333,50.038265 4.73637967,50.6358459 4,50.6358459 C3.26362033,50.6358459 2.66666667,50.038265 2.66666667,49.3011116 Z M20.792,37.4860438 L17.964,28.9931295 L23.3986667,23.5540874 L31.8826667,26.3850588 L20.792,37.4860438 Z M16.4373333,17.3061962 L21.152,22.0258166 L18.8,24.3856268 L16.4373333,26.7441023 L12.6666667,22.9694737 L11.724,22.0258166 L16.4373333,17.3061962 Z M14.552,28.6327513 L14.0813333,29.1039125 C13.3004027,29.8860322 12.0339655,29.886331 11.2526667,29.1045798 C10.4713679,28.3228287 10.4710694,27.0550608 11.252,26.2729411 L11.724,25.8017799 L14.552,28.6327513 Z M12,69.3221258 C13.4727593,69.3221258 14.6666667,70.5172876 14.6666667,71.9915943 L9.33333333,71.9915943 C9.33333333,70.5172876 10.5272407,69.3221258 12,69.3221258 Z M21.3333333,77.3305314 L2.66666667,77.3305314 L2.66666667,74.6610629 L21.3333333,74.6610629 L21.3333333,77.3305314 Z M41.3333333,76.7966377 C41.3333333,77.0914991 41.0945519,77.3305314 40.8,77.3305314 L30.6666667,77.3305314 L30.6666667,69.3221258 L40.8,69.3221258 C41.0945519,69.3221258 41.3333333,69.5611581 41.3333333,69.8560195 L41.3333333,76.7966377 Z M46.6666667,77.3305314 L44.7786667,77.3305314 L44,76.5497119 L44,72.7710791 L46.6666667,75.4405477 L46.6666667,77.3305314 Z M56.0893333,47.4992203 L56.0893333,47.4992203 L55.4093333,49.3011116 L51.2573333,49.3011116 L50.5826667,47.4965508 L50.5826667,47.4965508 C50.5826667,47.4872077 50.5826667,47.4778646 50.5826667,47.4685214 L48.0986667,41.2526639 C48.5370799,41.3234142 48.9799889,41.3626667 49.424,41.3701205 L57.424,41.3701205 C57.8108996,41.3620878 58.1969496,41.3304404 58.58,41.2753544 L56.1053333,47.4685214 C56.092,47.480534 56.092,47.4898772 56.0893333,47.4992203 Z M54.4093333,51.9705801 L53.3333333,54.8429283 L52.2573333,51.9705801 L54.4093333,51.9705801 Z M58.7466667,8.00707829 C58.7520316,9.87749746 59.2829212,11.7086555 60.2786667,13.2913155 C60.184,13.2913155 60.0946667,13.2632861 60,13.2632861 C57.8701153,13.2647385 55.9453042,14.5346016 55.104,16.493343 C53.9611549,16.0715504 52.7055118,16.0715504 51.5626667,16.493343 C50.9649838,15.1258435 49.8237448,14.0705037 48.4146667,13.5822876 C49.7236744,12.9230116 50.8755499,11.9893444 51.792,10.8447476 C53.2197481,9.04665432 55.390821,8.00128083 57.6853333,8.00707829 L58.7466667,8.00707829 Z M62.6533333,18.4687498 L62.6533333,18.4780929 L62.6533333,18.4780929 C62.6533333,18.5194697 62.6653333,18.5568422 62.6653333,18.598219 C62.7873521,20.1889231 61.6081984,21.5818243 60.0206743,21.7222805 C58.4331502,21.8627368 57.028225,20.6984621 56.8696447,19.1109927 C56.7110644,17.5235234 57.8578618,16.1038083 59.4417337,15.9267917 C61.0256056,15.7497751 62.4569422,16.881353 62.652,18.4647456 L62.6533333,18.4687498 Z M46.6666667,15.9327546 C48.139426,15.9327546 49.3333333,17.1279164 49.3333333,18.6022232 C49.3333333,20.07653 48.139426,21.2716917 46.6666667,21.2716917 C45.1939073,21.2716917 44,20.07653 44,18.6022232 C44,17.1279164 45.1939073,15.9327546 46.6666667,15.9327546 Z M42.896,14.8302641 L42.84,14.6807739 L43.0746667,14.6807739 C43.0173333,14.7314938 42.9506667,14.77554 42.896,14.8302641 Z M46.6666667,23.9411603 C49.3414719,23.9334908 51.5949014,21.9393844 51.9306667,19.2829377 C52.7708892,18.6927305 53.8904441,18.6927305 54.7306667,19.2829377 C55.0666926,21.9413961 57.323162,23.9361715 60,23.9411603 C60.182164,23.9324468 60.3637464,23.9141803 60.544,23.8864362 L60.4933333,24.0199096 L46.3413333,24.0199096 L46.2986667,23.9051225 C46.4226667,23.9131309 46.54,23.9411603 46.6666667,23.9411603 Z M66.7493333,16.0155082 C68.2220927,16.0155082 69.416,17.2106699 69.416,18.6849767 C69.416,20.1592835 68.2220927,21.3544453 66.7493333,21.3544453 L66.7493333,16.0155082 Z M64.0826667,9.34183676 L64.0826667,13.6490243 C62.4014235,12.2577332 61.4244403,10.1907098 61.416,8.00710248 L61.416,6.69238921 L61.416,6.6723682 L61.416,5.56453875 C63.0114236,6.13300533 64.0777711,7.64391582 64.08,9.33916729 L64.0826667,9.34183676 Z M42.7493333,9.34183676 C42.7544742,5.65820359 45.7362332,2.67331165 49.416,2.66815162 L55.768,2.66815162 C56.985012,2.66474669 58.1150374,3.29921834 58.7466667,4.34058742 L58.7466667,5.33763392 L57.68,5.33763392 C54.5747689,5.33032381 51.6365088,6.74421566 49.7026667,9.17632971 C48.2742591,10.973264 46.1033488,12.0175758 43.8093333,12.0113334 L42.7426667,12.0113334 L42.7493333,9.34183676 Z M37.416,18.6849767 C37.4269383,17.2165316 38.6157366,16.0300543 40.0826667,16.0235166 L40.0826667,21.3544453 C38.6099073,21.3544453 37.416,20.1592835 37.416,18.6849767 Z M42.7493333,32.0323195 L42.7493333,22.6891795 L42.7493333,22.6891795 L42.7493333,22.1979973 C42.788,22.2393741 42.8173333,22.2874245 42.8573333,22.3314708 L43.8493333,24.9715752 C44.2417265,26.0102537 45.2373706,26.6956445 46.3466667,26.6907129 L60.4933333,26.6907129 C61.6073094,26.6921069 62.6047756,26.0001727 62.9946667,24.9555583 L64.0800162,22.053846 L64.0800162,32.02965 C64.0839054,33.8008133 63.3827806,35.5005602 62.1316905,36.7529648 C60.8806004,38.0053695 59.1826376,38.7072309 57.4133333,38.7033377 L49.4133333,38.7033377 C48.6302264,38.7048762 47.8532888,38.5646996 47.12,38.2895538 C44.4936991,37.3292929 42.7466667,34.828589 42.7466667,32.02965 L42.7493333,32.0323195 Z M42.6666667,51.790391 L42.6666667,44.3492474 L45.9253333,43.0318647 L47.7333333,47.565957 L42.6666667,51.790391 Z M64,51.790391 L58.9333333,47.565957 L60.7413333,43.0278605 L64,44.3492474 L64,51.790391 Z M60,71.9915943 L60,62.6484544 L68,62.6484544 L68,71.9915943 L60,71.9915943 Z M46.6666667,58.6442515 L49.3333333,58.6442515 L49.3333333,61.3137201 L46.6666667,61.3137201 L46.6666667,58.6442515 Z M46.6666667,66.6526572 L49.3333333,66.6526572 L49.3333333,69.3221258 L46.6666667,69.3221258 L46.6666667,66.6526572 Z M51.768,32.0323195 L49.416,32.0323195 L49.416,29.3628509 L51.768,29.3628509 C53.52142,29.3606823 55.2505441,28.9522734 56.82,28.1695985 L58.0133333,30.5574381 C56.0732486,31.5252183 53.9356155,32.0300361 51.768,32.0323195 L51.768,32.0323195 Z" id="Shape"></path>
                </g>
                <circle id="Oval-Copy-16" opacity="0.25" cx="67.2527473" cy="21.0164835" r="5.04395604"></circle>
                <circle id="Oval-Copy-17" opacity="0.25" cx="52.1208791" cy="21.0164835" r="5.04395604"></circle>
                <polygon id="Rectangle" opacity="0.25" transform="translate(36.503313, 67.898449) rotate(-47.000000) translate(-36.503313, -67.898449) " points="33.5610049 53.6072398 39.4456202 53.6072398 39.4456202 82.1896574 33.5610049 82.1896574"></polygon>
                <polygon id="Path-5" opacity="0.25" points="40.9010989 67.6311175 18.9251946 67.6311175 15.917767 68.4838 14 72.3277251 18.9251946 72.9465614 18.9251946 78.559689 40.6261629 78.559689"></polygon>
            </g>
        </g>
    </g>
</svg>