<?xml version="1.0" encoding="UTF-8"?>
<svg width="141px" height="50px" viewBox="0 0 141 50" version="1.1" xmlns="http://www.w3.org/2000/svg" xmlns:xlink="http://www.w3.org/1999/xlink">
    <!-- Generator: sketchtool 60.1 (101010) - https://sketch.com -->
    <title>B23C999E-66B0-42C3-B06E-2457AD9AF742</title>
    <desc>Created with sketchtool.</desc>
    <g id="Final" stroke="none" stroke-width="1" fill="none" fill-rule="evenodd">
        <g id="Home-page-" transform="translate(-1022.000000, -2197.000000)">
            <g id="Group-30" transform="translate(986.000000, 2190.000000)">
                <rect id="Rectangle-Copy-30" opacity="0.199567522" x="0" y="0" width="214" height="65"></rect>
                <g id="hyatok" transform="translate(36.000000, 7.000000)" fill-rule="nonzero">
                    <polygon id="Path" fill="#161F28" points="63.9907624 38.3700504 0 38.3700504 0 26.6990584 9.26357257 17.4998316 9.26357257 29.1996683 29.9474105 29.1996683 29.9474105 9.26357257 39.2132019 0 39.2132019 28.8712829 54.4698067 28.8712829 54.4698067 17.4776434 63.9907624 17.4776434"></polygon>
                    <polygon id="Path" fill="#161F28" points="23.046881 17.8748121 23.046881 21.0100045 19.1639464 21.0100045 19.1639464 21.877563 23.046881 21.877563 23.046881 25.0349435 15.5339573 25.0349435 15.2077907 25.0127553 15.2077907 21.877563 15.9333448 21.877563 15.9333448 17.8748121"></polygon>
                    <rect id="Rectangle" fill="#161F28" x="15.9355636" y="15.9510954" width="7.11131738" height="1.30244721"></rect>
                    <rect id="Rectangle" fill="#161F28" x="79.5513455" y="40.639903" width="9.26579139" height="9.07941053"></rect>
                    <rect id="Rectangle" fill="#161F28" x="91.1801799" y="40.5933078" width="9.26579139" height="9.07719171"></rect>
                    <rect id="Rectangle" fill="#161F28" x="42.8875675" y="17.433267" width="9.07941053" height="9.26579139"></rect>
                    <rect id="Rectangle" fill="#161F28" x="42.8409722" y="6.22378947" width="9.07719171" height="9.26579139"></rect>
                    <polygon id="Path" fill="#AD1F24" points="102.409627 9.26357257 102.409627 28.89569 129.270659 28.89569 129.270659 26.765623 113.572509 26.765623 104.373282 17.4998316 138.720612 17.4998316 138.720612 38.3700504 102.409627 38.3700504 102.409627 49.6727183 140.670955 49.6727183 140.670955 9.26357257"></polygon>
                    <polygon id="Path" fill="#161F28" points="94.8057314 28.89569 94.8057314 17.4998316 85.3535592 17.4998316 85.3535592 28.89569 76.109956 28.89569 76.109956 9.26357257 66.8463834 0 66.8463834 38.3700504 102.409627 38.3700504 102.409627 28.89569"></polygon>
                </g>
            </g>
        </g>
    </g>
</svg>