<?xml version="1.0" encoding="UTF-8"?>
<svg width="121px" height="52px" viewBox="0 0 121 52" version="1.1" xmlns="http://www.w3.org/2000/svg" xmlns:xlink="http://www.w3.org/1999/xlink">
    <!-- Generator: sketchtool 60.1 (101010) - https://sketch.com -->
    <title>EA858261-3CD9-41AF-8B5C-3AE16F7E7669</title>
    <desc>Created with sketchtool.</desc>
    <g id="Final" stroke="none" stroke-width="1" fill="none" fill-rule="evenodd">
        <g id="Home-page-" transform="translate(-763.000000, -2196.000000)">
            <g id="Group-29" transform="translate(717.000000, 2190.000000)">
                <rect id="Rectangle-Copy-29" opacity="0.199567522" x="0" y="0" width="214" height="65"></rect>
                <g id="Group-6" transform="translate(47.000000, 6.000000)">
                    <g id="Group-2" transform="translate(68.938393, 0.000000)">
                        <g id="Group">
                            <path d="M34.4009628,23.869932 C39.0494863,23.8921595 43.2465313,21.5274955 46.9920978,16.7759399 C43.2009186,11.9883463 38.9810672,9.58343576 34.3325437,9.56120823 C29.6840202,9.53898069 25.4869752,11.9036447 21.7414087,16.6552003 C25.5325879,21.4427939 29.7524393,23.8477045 34.4009628,23.869932 Z" id="Oval-Copy-3" fill="#FBB8B8" transform="translate(34.366753, 16.715570) rotate(-225.000000) translate(-34.366753, -16.715570) "></path>
                            <path d="M38.0571429,33.015873 C42.7278939,33.015873 46.9564653,30.5820106 50.7428571,25.7142857 C46.9564653,20.8465608 42.7278939,18.4126984 38.0571429,18.4126984 C33.3863918,18.4126984 29.1578204,20.8465608 25.3714286,25.7142857 C29.1578204,30.5820106 33.3863918,33.015873 38.0571429,33.015873 Z" id="Oval-Copy-4" fill="#FF6472" transform="translate(38.057143, 25.714286) rotate(-180.000000) translate(-38.057143, -25.714286) "></path>
                            <path d="M34.3325437,41.3847453 C38.9810672,41.3625178 43.2009186,38.9576072 46.9920978,34.1700136 C43.2465313,29.418458 39.0494863,27.053794 34.4009628,27.0760215 C29.7524393,27.098249 25.5325879,29.5031596 21.7414087,34.2907532 C25.4869752,39.0423088 29.6840202,41.4069728 34.3325437,41.3847453 Z" id="Oval-Copy-5" fill="#FBB8B8" transform="translate(34.366753, 34.230383) rotate(-135.000000) translate(-34.366753, -34.230383) "></path>
                            <path d="M25.3714286,45.7069841 C30.046855,45.7069841 34.2796593,43.2755556 38.0698413,38.4126984 C34.2796593,33.5498413 30.046855,31.1184127 25.3714286,31.1184127 C20.6960021,31.1184127 16.4631979,33.5498413 12.6730159,38.4126984 C16.4631979,43.2755556 20.6960021,45.7069841 25.3714286,45.7069841 Z" id="Oval-Copy-6" fill="#FF6472" transform="translate(25.371429, 38.412698) rotate(-90.000000) translate(-25.371429, -38.412698) "></path>
                            <path d="M18.4010483,49.1753235 C16.3927774,47.4536958 14.5885714,41.6190115 14.5885714,38.8691381 C14.5885714,36.1193386 19.8664009,28.5061072 22.9507195,24.5136163 C24.9778156,21.8916268 26.7195219,19.2230669 28.1758384,16.5079365 C29.4958605,18.3899735 29.9303458,20.7081463 29.4770353,23.4617158 C28.7835154,27.6818844 29.2676992,28.9111961 30.4762763,30.0288865 C31.2812412,30.7740135 31.2812412,31.4342049 30.4762763,32.0092389 C29.8821534,32.5658665 29.5846401,33.2208834 29.5846401,33.9740678 C29.5846401,35.1050641 29.4770353,35.8679322 29.4770353,37.3803625 C29.4770353,38.8920537 28.2586692,38.8920537 27.2473802,38.8920537 C26.2353381,38.8920537 19.0835845,37.341848 19.0835845,41.2154507 C19.0835845,42.2919441 19.5990179,43.7803889 19.9382719,44.750974 C21.2007359,48.3628072 19.8044489,50.3778815 18.4010483,49.1753235 Z" id="Stroke-1" fill="#FFFFFF"></path>
                            <path d="M12.6857143,33.015873 C17.3564653,33.015873 21.5850367,30.5820106 25.3714286,25.7142857 C21.5850367,20.8465608 17.3564653,18.4126984 12.6857143,18.4126984 C8.01496326,18.4126984 3.78639183,20.8465608 0,25.7142857 C3.78639183,30.5820106 8.01496326,33.015873 12.6857143,33.015873 Z" id="Oval" fill="#FF6472"></path>
                            <path d="M16.4956814,23.5665205 C21.1434292,23.5443065 25.3625713,21.1390102 29.1531078,16.3506317 C25.4081562,11.5982692 21.2118066,9.23319489 16.5640588,9.25540888 C11.9163111,9.27762288 7.69716895,11.6829191 3.90663249,16.4712977 C7.65158402,21.2236602 11.8479337,23.5887345 16.4956814,23.5665205 Z" id="Oval-Copy" fill="#FBB8B8" transform="translate(16.529870, 16.410965) rotate(46.000000) translate(-16.529870, -16.410965) "></path>
                            <path d="M25.3714286,20.3101587 C30.046855,20.3101587 34.2796593,17.8787302 38.0698413,13.015873 C34.2796593,8.15301587 30.046855,5.7215873 25.3714286,5.7215873 C20.6960021,5.7215873 16.4631979,8.15301587 12.6730159,13.015873 C16.4631979,17.8787302 20.6960021,20.3101587 25.3714286,20.3101587 Z" id="Oval-Copy-2" fill="#FF6472" transform="translate(25.371429, 13.015873) rotate(-270.000000) translate(-25.371429, -13.015873) "></path>
                        </g>
                    </g>
                    <path d="M59.7723214,33.6053571 C60.1919664,32.6142808 60.4017857,31.5696483 60.4017857,30.4714286 C60.4017857,28.2392746 59.611615,26.3375079 58.03125,24.7660714 C56.450885,23.194635 54.544654,22.4089286 52.3125,22.4089286 C50.1160604,22.4089286 48.236615,23.1812423 46.6741071,24.7258929 L45.75,23.8017857 C46.3035742,23.2482115 46.9285679,22.7660735 47.625,22.3553571 C49.089293,21.5160672 50.6517774,21.0964286 52.3125,21.0964286 C54.9107273,21.0964286 57.127223,22.0093659 58.9620536,23.8352679 C60.7968842,25.6611698 61.7142857,27.8732013 61.7142857,30.4714286 C61.7142857,32.1232225 61.3482179,33.6187433 60.6160714,34.9580357 L59.0357143,34.9714286 L44.1026786,34.9714286 L44.1026786,33.6053571 L59.7723214,33.6053571 Z M38.1294643,33.6053571 C39.3348275,33.6053571 39.9375,32.8553646 39.9375,31.3553571 L39.9375,21.0964286 L41.2901786,21.0964286 L41.2901786,31.3553571 C41.2901786,32.8553646 41.8928511,33.6053571 43.0982143,33.6053571 L44.90625,33.6053571 L44.90625,34.9714286 L42.8303571,34.9714286 C41.8482094,34.9089283 41.1116096,34.5428605 40.6205357,33.8732143 C40.0937474,34.5607177 39.3348264,34.9267855 38.34375,34.9714286 L36.1473214,34.9714286 L36.1473214,33.6053571 L38.1294643,33.6053571 Z M38.6651786,37.6633929 C38.9776801,37.6633929 39.2433025,37.7727668 39.4620536,37.9915179 C39.6808047,38.210269 39.7901786,38.4758913 39.7901786,38.7883929 C39.7901786,39.0741086 39.6808047,39.3263382 39.4620536,39.5450893 C39.2433025,39.7638404 38.9776801,39.8732143 38.6651786,39.8732143 C38.352677,39.8732143 38.0870547,39.7638404 37.8683036,39.5450893 C37.6495525,39.3263382 37.5401786,39.0741086 37.5401786,38.7883929 C37.5401786,38.4758913 37.6540167,38.210269 37.8816964,37.9915179 C38.1093761,37.7727668 38.3705342,37.6633929 38.6651786,37.6633929 Z M42.2142857,37.6633929 C42.5267873,37.6633929 42.7924096,37.7727668 43.0111607,37.9915179 C43.2299118,38.210269 43.3392857,38.4758913 43.3392857,38.7883929 C43.3392857,39.0741086 43.2299118,39.3263382 43.0111607,39.5450893 C42.7924096,39.7638404 42.5267873,39.8732143 42.2142857,39.8732143 C41.9017842,39.8732143 41.6361618,39.7638404 41.4174107,39.5450893 C41.1986596,39.3263382 41.0892857,39.0741086 41.0892857,38.7883929 C41.0892857,38.4758913 41.2031239,38.210269 41.4308036,37.9915179 C41.6584833,37.7727668 41.9196414,37.6633929 42.2142857,37.6633929 Z M33.8035714,33.6053571 L36.7901786,33.6053571 L36.7901786,34.9714286 L32.4508929,34.9714286 L32.4508929,16.9848214 L33.8035714,16.9848214 L33.8035714,33.6053571 Z M27.28125,33.6053571 C28.3080408,33.4892851 28.8214286,32.7392926 28.8214286,31.3553571 L28.8214286,21.0964286 L30.1741071,21.0964286 L30.1741071,31.4357143 C30.1741071,33.6946542 29.2098311,34.8732138 27.28125,34.9714286 L22.5267857,34.9714286 L22.5267857,33.6053571 L27.28125,33.6053571 Z M24.7366071,17.0383929 C25.0491087,17.0383929 25.314731,17.1477668 25.5334821,17.3665179 C25.7522332,17.585269 25.8616071,17.8508913 25.8616071,18.1633929 C25.8616071,18.4491086 25.7522332,18.7013382 25.5334821,18.9200893 C25.314731,19.1388404 25.0491087,19.2482143 24.7366071,19.2482143 C24.4241056,19.2482143 24.1584832,19.1388404 23.9397321,18.9200893 C23.720981,18.7013382 23.6116071,18.4491086 23.6116071,18.1633929 C23.6116071,17.8508913 23.7254453,17.585269 23.953125,17.3665179 C24.1808047,17.1477668 24.4419628,17.0383929 24.7366071,17.0383929 Z M28.2857143,17.0383929 C28.5982158,17.0383929 28.8638382,17.1477668 29.0825893,17.3665179 C29.3013404,17.585269 29.4107143,17.8508913 29.4107143,18.1633929 C29.4107143,18.4491086 29.3013404,18.7013382 29.0825893,18.9200893 C28.8638382,19.1388404 28.5982158,19.2482143 28.2857143,19.2482143 C27.9732127,19.2482143 27.7075904,19.1388404 27.4888393,18.9200893 C27.2700882,18.7013382 27.1607143,18.4491086 27.1607143,18.1633929 C27.1607143,17.8508913 27.2745524,17.585269 27.5022321,17.3665179 C27.7299119,17.1477668 27.99107,17.0383929 28.2857143,17.0383929 Z M10.4732143,18.2973214 C9.21427942,18.2973214 8.58482143,18.8374946 8.58482143,19.9178571 C8.58482143,20.9535766 9.17856549,21.4714286 10.3660714,21.4714286 L12.8571429,21.4714286 L12.8571429,22.8508929 L10.4196429,22.8508929 C9.16070799,22.8508929 8.02679076,23.1901752 7.01785714,23.86875 L5.83928571,23.11875 C6.29464513,22.6276761 7.0624946,22.2080375 8.14285714,21.8598214 C7.58035433,21.3508903 7.29910714,20.7035754 7.29910714,19.9178571 C7.29910714,19.0339242 7.58705069,18.3241098 8.16294643,17.7883929 C8.73884217,17.2526759 9.50892375,16.9848214 10.4732143,16.9848214 L11.3035714,16.9848214 L12.09375,18.2973214 L10.4732143,18.2973214 Z M21.2276786,33.6053571 L23.3035714,33.6053571 L23.3035714,34.9714286 L8.45089286,34.9714286 C6.98659982,34.9714286 5.86161107,34.8754474 5.07589286,34.6834821 C4.29017464,34.4915169 3.54018214,34.141074 2.82589286,33.6321429 C0.941954866,32.257136 0,30.4000117 0,28.0607143 C0,26.5428496 0.446424107,25.181256 1.33928571,23.9758929 L2.46428571,24.7660714 C1.74999643,25.7392906 1.39285714,26.8285654 1.39285714,28.0339286 C1.39285714,29.9357238 2.15177812,31.4357088 3.66964286,32.5339286 C4.66071924,33.2482179 5.76785103,33.6053571 6.99107143,33.6053571 L19.8883929,33.6053571 L19.8883929,16.9714286 L21.2276786,16.9848214 L21.2276786,33.6053571 Z" id="حياتك" stroke="#000000" stroke-width="0.5" fill="#000000" fill-rule="nonzero"></path>
                    <g id="ُ-2" transform="translate(24.366964, 10.971429)" fill="#000000" fill-rule="nonzero">
                        <path d="M2.95480519,0 C3.29143025,0 3.56883008,0.120633714 3.78701299,0.361904762 C4.0051959,0.60317581 4.11428571,0.907934667 4.11428571,1.27619048 C4.11428571,1.69524019 3.99896219,2.05396676 3.76831169,2.35238095 C3.53766118,2.65079514 3.24156025,2.83174571 2.88,2.8952381 L0,3.42857143 L0.392727273,2.57142857 L2.16935065,2.22857143 C1.93246635,1.98730038 1.81402597,1.66984324 1.81402597,1.27619048 C1.81402597,0.907934667 1.92311579,0.60317581 2.1412987,0.361904762 C2.35948161,0.120633714 2.63064773,0 2.95480519,0 Z M2.95480519,0.666666667 C2.65558292,0.666666667 2.50597403,0.869839238 2.50597403,1.27619048 C2.50597403,1.59365238 2.66805033,1.84126895 2.99220779,2.01904762 C3.26649488,1.82857048 3.40363636,1.5809539 3.40363636,1.27619048 C3.40363636,0.869839238 3.25402597,0.666666667 2.95480519,0.666666667 Z" id="ُ"></path>
                    </g>
                    <polygon id="ِ" fill="#000000" fill-rule="nonzero" points="0.366964286 39.7714286 1.11442536 38.1851979 7.22410714 37.0285714 6.50914438 38.6148021"></polygon>
                </g>
            </g>
        </g>
    </g>
</svg>