<?xml version="1.0" encoding="UTF-8"?>
<svg width="142px" height="44px" viewBox="0 0 142 44" version="1.1" xmlns="http://www.w3.org/2000/svg" xmlns:xlink="http://www.w3.org/1999/xlink">
    <!-- Generator: sketchtool 60.1 (101010) - https://sketch.com -->
    <title>D7538D0E-C88B-465C-9345-312AF45E03B7</title>
    <desc>Created with sketchtool.</desc>
    <g id="Final" stroke="none" stroke-width="1" fill="none" fill-rule="evenodd">
        <g id="Home-page-" transform="translate(-1291.000000, -2073.000000)">
            <g id="Group-7" transform="translate(1255.000000, 2062.000000)">
                <rect id="Rectangle-Copy-33" opacity="0.199567522" x="0" y="0" width="214" height="65"></rect>
                <g id="Mawdoo3-turquoise" transform="translate(36.000000, 11.000000)" fill="#00C2C3" fill-rule="nonzero">
                    <path d="M3.39127444,11.1660706 C1.13015281,13.3876623 0,16.0546918 0,19.1695585 C0,21.8573806 0.871482458,24.2413131 2.60710343,26.3237555 C0.871482458,28.2398582 0,30.4710466 0,33.0085233 C0,35.7971086 1.00530561,38.1746436 3.01510083,40.1427275 C5.02163206,42.1076126 7.45166461,43.0896552 10.2954065,43.0896552 L20.5655172,43.0896552 L20.5655172,35.5428012 L10.2954065,35.5428012 C9.57488312,35.5428012 8.96125502,35.2964908 8.46431418,34.8038699 C7.96166138,34.3128486 7.707071,33.715466 7.707071,33.0085233 C7.707071,32.305579 7.96166138,31.7097957 8.46431418,31.2275712 C8.96125502,30.7429476 9.57488312,30.5038345 10.2954065,30.5038345 L20.5655172,30.5038345 L20.5655172,22.9577802 L11.5748864,22.9577802 C10.5010372,22.9577802 9.594467,22.5859155 8.84130379,21.8493835 C8.0832446,21.1128514 7.707071,20.2187767 7.707071,19.1695585 C7.707071,18.1347351 8.0832446,17.252656 8.84130379,16.5129251 C9.594467,15.7771928 10.5010372,15.410926 11.5748864,15.410926 L20.5655172,15.410926 L20.5655172,7.83448276 L11.5748864,7.83448276 C8.37863473,7.83448276 5.65239606,8.94687801 3.39127444,11.1660706" id="Fill-1"></path>
                    <path d="M70.0197847,6.85517241 C70.9273532,6.85517241 71.7263391,6.52061898 72.4140279,5.85513867 C73.1008119,5.18149853 73.4482759,4.3763943 73.4482759,3.43075948 C73.4482759,2.47968477 73.1008119,1.67458053 72.4140279,1.00456699 C71.7263391,0.333646799 70.9273532,0 70.0197847,0 C69.0724027,0 68.2670829,0.333646799 67.5965863,1.00456699 C66.9306138,1.67458053 66.5931034,2.47968477 66.5931034,3.43075948 C66.5931034,4.3763943 66.9306138,5.18149853 67.5965863,5.85513867 C68.2670829,6.52061898 69.0724027,6.85517241 70.0197847,6.85517241" id="Fill-3"></path>
                    <path d="M82.9383255,27.1810434 C85.0992421,24.9714474 86.1793103,22.2996195 86.1793103,19.1687587 C86.1793103,16.0546918 85.0992421,13.3876622 82.9383255,11.1660705 C80.7758481,8.9460783 78.1677644,7.83448276 75.1086118,7.83448276 C72.066628,7.83448276 69.4952229,8.90769228 67.3990791,11.0573101 L61.3502293,17.2054731 L61.3502293,7.83448276 L53.9731454,7.83448276 L53.9731454,19.1687587 C53.9731454,20.2187768 53.6141631,21.1112521 52.8805908,21.8493834 C52.1517008,22.5859154 51.2839004,22.9577801 50.2748483,22.9577801 L46.6015241,22.9577801 L46.6015241,19.1687587 C46.6015241,16.0546918 45.5222363,13.3876622 43.3574177,11.1660705 C41.1996226,8.9460783 38.5899782,7.83448276 35.5323864,7.83448276 C32.4888418,7.83448276 29.8893424,8.9460783 27.7284258,11.1660705 C25.5651678,13.3876622 24.4827586,16.0546918 24.4827586,19.1687587 C24.4827586,22.2996195 25.5651678,24.9714474 27.7284258,27.1810434 C29.8893424,29.3970371 32.4888418,30.5030348 35.5323864,30.5030348 L39.2299029,30.5030348 L39.2299029,31.7529799 C39.2299029,32.8053971 38.8685796,33.6970725 38.1474935,34.4376032 C37.4303097,35.1741351 36.5531445,35.542801 35.5323864,35.542801 L24.4827586,35.542801 L24.4827586,43.0896552 L35.5323864,43.0896552 C38.5899782,43.0896552 41.1996226,41.9844572 43.3574177,39.7708626 C45.5222363,37.5596672 46.6015241,34.8870396 46.6015241,31.7529799 L46.6015241,30.5030348 L50.3006014,30.5030348 C53.1100273,30.4958374 55.556569,29.5369863 57.6480303,27.6288806 C59.7433937,29.5441836 62.2000806,30.5030348 65.0196515,30.5030348 L75.1086118,30.5030348 C78.1677644,30.5030348 80.7758481,29.3970371 82.9383255,27.1810434 L82.9383255,27.1810434 Z M39.2299029,22.9577801 L35.5323864,22.9577801 C34.5241146,22.9577801 33.657875,22.5859154 32.9399106,21.8493834 C32.2164835,21.1112521 31.8543797,20.2187768 31.8543797,19.1687587 C31.8543797,18.1339353 32.2164835,17.2526559 32.9399106,16.5121254 C33.657875,15.776393 34.5241146,15.4061277 35.5323864,15.4061277 C36.5531445,15.4061277 37.4303097,15.776393 38.1474935,16.5121254 C38.8685796,17.2526559 39.2299029,18.1339353 39.2299029,19.1687587 L39.2299029,22.9577801 Z M72.6581682,16.3657786 C73.2848263,15.7292102 74.1003401,15.4061277 75.1086118,15.4061277 C76.1270288,15.4061277 77.0041938,15.776393 77.7284014,16.5121254 C78.4440247,17.2526559 78.7998852,18.1339353 78.7998852,19.1687587 C78.7998852,20.2187768 78.4440247,21.1112521 77.7284014,21.8493834 C77.0041938,22.5859154 76.1270288,22.9577801 75.1086118,22.9577801 L66.1738574,22.9577801 L72.6581682,16.3657786 Z" id="Fill-6"></path>
                    <path d="M138.795043,11.1660706 C136.663029,8.94687801 134.087039,7.83448276 131.063218,7.83448276 C128.060979,7.83448276 125.494238,8.94687801 123.356058,11.1660706 C121.224044,13.3876623 120.155725,16.0546918 120.155725,19.1695585 C120.155725,20.2187767 119.796536,21.1128514 119.076615,21.8493835 C118.357465,22.5859155 117.501885,22.9577802 116.504479,22.9577802 L112.875585,22.9577802 L112.875585,19.1695585 C112.875585,16.0546918 111.805724,13.3876623 109.672169,11.1660706 C107.537072,8.94687801 104.960311,7.83448276 101.941115,7.83448276 C98.9342513,7.83448276 96.3682813,8.94687801 94.2293306,11.1660706 C92.0950046,13.3876623 91.0259147,16.0546918 91.0259147,19.1695585 C91.0259147,22.3004193 92.0950046,24.9722472 94.2293306,27.1810435 C96.3682813,29.3962375 98.9342513,30.5038345 101.941115,30.5038345 L105.589278,30.5038345 L105.589278,31.75298 C105.589278,32.8061968 105.233943,33.6978724 104.524042,34.438403 C103.815684,35.1741353 102.948541,35.5428012 101.941115,35.5428012 L78.3448276,35.5428012 L78.3448276,43.0896552 L101.941115,43.0896552 C104.960311,43.0896552 107.537072,41.9844573 109.672169,39.7716625 C111.805724,37.5588676 112.875585,34.8870397 112.875585,31.75298 L112.875585,30.5038345 L116.526832,30.5038345 C119.300145,30.4950377 121.717352,29.5377861 123.784619,27.6288805 C125.853427,29.5441838 128.281426,30.5038345 131.063218,30.5038345 C134.087039,30.5038345 136.663029,29.3962375 138.795043,27.1810435 C140.931681,24.9722472 142,22.3004193 142,19.1695585 C142,16.0546918 140.931681,13.3876623 138.795043,11.1660706 L138.795043,11.1660706 Z M105.589278,22.9577802 L101.941115,22.9577802 C100.942167,22.9577802 100.08967,22.5859155 99.3774572,21.8493835 C98.6629321,21.1128514 98.309909,20.2187767 98.309909,19.1695585 C98.309909,18.1347351 98.6629321,17.252656 99.3774572,16.5129251 C100.08967,15.7771928 100.942167,15.410926 101.941115,15.410926 C102.948541,15.410926 103.815684,15.7771928 104.524042,16.5129251 C105.233943,17.252656 105.589278,18.1347351 105.589278,19.1695585 L105.589278,22.9577802 Z M133.652311,21.8493835 C132.940869,22.5859155 132.079894,22.9577802 131.063218,22.9577802 C130.071207,22.9577802 129.214856,22.5859155 128.504185,21.8493835 C127.795055,21.1128514 127.437407,20.2187767 127.437407,19.1695585 C127.437407,18.1347351 127.795055,17.252656 128.504185,16.5129251 C129.214856,15.7771928 130.071207,15.410926 131.063218,15.410926 C132.079894,15.410926 132.940869,15.7771928 133.652311,16.5129251 C134.362983,17.252656 134.719089,18.1347351 134.719089,19.1695585 C134.719089,20.2187767 134.362983,21.1128514 133.652311,21.8493835 L133.652311,21.8493835 Z" id="Fill-8"></path>
                    <polygon id="Fill-11" points="70.5103448 37.2137931 64.6344828 39.1724137 70.5103448 41.1310345"></polygon>
                    <polygon id="Fill-13" points="71.4896552 37.7463878 71.5615863 37.7463878 71.5615863 41.5965136 77.3655172 43.0896552 77.3655172 36.2344828"></polygon>
                </g>
            </g>
        </g>
    </g>
</svg>