<?xml version="1.0" encoding="UTF-8"?>
<svg width="97px" height="65px" viewBox="0 0 97 65" version="1.1" xmlns="http://www.w3.org/2000/svg" xmlns:xlink="http://www.w3.org/1999/xlink">
    <!-- Generator: sketchtool 60.1 (101010) - https://sketch.com -->
    <title>1D6AC208-F220-4B0D-AABF-078D8DD3684F</title>
    <desc>Created with sketchtool.</desc>
    <defs>
        <polygon id="path-1" points="0.0134230223 0.105045907 16.2217466 0.105045907 16.2217466 27.2383592 0.0134230223 27.2383592"></polygon>
        <polygon id="path-3" points="0.0731370117 0.105459033 26.5147983 0.105459033 26.5147983 46.340081 0.0731370117 46.340081"></polygon>
        <polygon id="path-5" points="0.178314718 0.214944669 52.0467258 0.214944669 52.0467258 63.2488327 0.178314718 63.2488327"></polygon>
    </defs>
    <g id="Final" stroke="none" stroke-width="1" fill="none" fill-rule="evenodd">
        <g id="Home-page-" transform="translate(-1044.000000, -2062.000000)">
            <g id="Group-9" transform="translate(986.000000, 2062.000000)">
                <rect id="Rectangle-Copy-26" opacity="0.199567522" x="0" y="0" width="214" height="65"></rect>
                <g id="Group-35" transform="translate(58.000000, 0.000000)">
                    <g id="Group-34">
                        <path d="M43.7650404,49.5274931 C44.4767224,49.7293474 45.2827898,50.0050316 45.2827898,51.0135174 C45.2827898,51.9149236 44.5773827,52.4058143 43.4492022,52.4058143 C42.5827385,52.4058143 42.0590431,52.1502893 42.0590431,52.1502893 L42.2203612,51.5515336 C42.2203612,51.5515336 42.7709865,51.7735471 43.4492022,51.7735471 C44.1342156,51.7735471 44.5240458,51.5384432 44.5240458,51.0606429 C44.5240458,50.5158197 43.9998275,50.3681598 43.4290701,50.213431 C42.7375202,50.0183838 42.0119811,49.7293474 42.0119811,48.821396 C42.0119811,47.8058413 42.8381806,47.4694175 43.7650404,47.4694175 C44.5575121,47.4694175 45.1149353,47.7183973 45.1149353,47.7183973 L44.940283,48.2896632 C44.940283,48.2896632 44.4837817,48.1014229 43.8322345,48.1014229 C43.147221,48.1014229 42.7440566,48.3168912 42.7440566,48.7740086 C42.7440566,49.2316497 43.2008194,49.3725026 43.7650404,49.5274931" id="Fill-1" fill="#00ADEE"></path>
                        <path d="M52.3603908,49.9377206 C52.3603908,50.7312618 52.4610512,51.7735209 53.5826954,51.7735209 C54.7046011,51.7735209 54.8052615,50.7312618 54.8052615,49.9377206 C54.8052615,49.1441795 54.7046011,48.1013968 53.5826954,48.1013968 C52.4610512,48.1013968 52.3603908,49.1441795 52.3603908,49.9377206 M55.5708032,49.9377206 C55.5708032,51.255664 55.154566,52.4057881 53.5826954,52.4057881 C52.0045499,52.4057881 51.5948491,51.255664 51.5948491,49.9377206 C51.5948491,48.6192537 52.0045499,47.4693914 53.5826954,47.4693914 C55.154566,47.4693914 55.5708032,48.6192537 55.5708032,49.9377206" id="Fill-3" fill="#00ADEE"></path>
                        <polygon id="Fill-5" fill="#00ADEE" points="65.3217086 48.195831 63.8303663 48.195831 63.8303663 52.3250726 63.0718838 52.3250726 63.0718838 48.195831 61.5740051 48.195831 61.5740051 47.5499498 65.3217086 47.5499498"></polygon>
                        <path d="M72.0970671,49.9377206 C72.0970671,50.7312618 72.1977275,51.7735209 73.3193717,51.7735209 C74.4410159,51.7735209 74.5419377,50.7312618 74.5419377,49.9377206 C74.5419377,49.1441795 74.4410159,48.1013968 73.3193717,48.1013968 C72.1977275,48.1013968 72.0970671,49.1441795 72.0970671,49.9377206 M75.3072181,49.9377206 C75.3072181,51.255664 74.8912423,52.4057881 73.3193717,52.4057881 C71.7412261,52.4057881 71.3315253,51.255664 71.3315253,49.9377206 C71.3315253,48.6192537 71.7412261,47.4693914 73.3193717,47.4693914 C74.8912423,47.4693914 75.3072181,48.6192537 75.3072181,49.9377206" id="Fill-7" fill="#00ADEE"></path>
                        <path d="M83.3722321,48.1014753 C83.090383,48.1014753 82.8080111,48.1287034 82.5797604,48.1554078 L82.5797604,49.7896157 C82.6806822,49.7964227 83.0030569,49.8097749 83.2650353,49.8097749 C84.1445717,49.8097749 84.5273426,49.6147277 84.5273426,48.9623012 C84.5273426,48.256204 84.0773776,48.1014753 83.3722321,48.1014753 L83.3722321,48.1014753 Z M81.8210164,47.6105846 C82.1833938,47.5569139 82.7949383,47.4694699 83.3521,47.4694699 C84.6350623,47.4694699 85.286348,47.8996211 85.286348,48.948949 C85.286348,49.6885576 84.9509005,50.1260394 84.2386957,50.3074726 L84.7827846,51.289254 C84.9370434,51.5785522 85.0580973,51.7398262 85.3200757,51.7398262 C85.4141997,51.7398262 85.474596,51.7196669 85.474596,51.7196669 L85.474596,52.2914564 C85.474596,52.2914564 85.3603399,52.3655482 85.1051593,52.3655482 C84.5812024,52.3655482 84.3325582,52.0424767 84.0912348,51.5853592 L83.4663561,50.4082688 L83.2650353,50.4082688 C83.0498574,50.4082688 82.7813426,50.4017236 82.5797604,50.3949166 L82.5797604,52.3249679 L81.8210164,52.3249679 L81.8210164,47.6105846 Z" id="Fill-9" fill="#00ADEE"></path>
                        <g id="Group-13" transform="translate(80.528302, 18.111641)">
                            <mask id="mask-2" fill="white">
                                <use xlink:href="#path-1"></use>
                            </mask>
                            <g id="Clip-12"></g>
                            <path d="M14.4500978,0.367133873 C14.4422542,0.367133873 14.4344105,0.367133873 14.4265668,0.367133873 C13.9726801,0.375511741 13.5899092,0.620040756 13.3488472,1.0564753 C11.1656935,5.00376005 9.00084178,9.04739028 6.90710593,12.9580219 C4.81337008,16.8694389 2.64799542,20.9138545 0.464057412,24.8627101 C0.00180404313,25.6984024 0.446801348,26.4427236 1.05599272,26.7804564 C1.64923531,27.1092877 2.44484447,27.0841541 2.88565849,26.2872094 C5.06881213,22.3399247 7.23340243,18.2962945 9.32713827,14.3856629 C11.4211356,10.4742459 13.5865102,6.42983023 15.7701868,2.48097463 C16.021707,2.0264753 16.021707,1.54579514 15.7704482,1.12742537 C15.4959199,0.670307962 14.9677798,0.367133873 14.4500978,0.367133873 M1.78885256,27.2383592 C1.48739434,27.2383592 1.18750485,27.1527479 0.929186792,27.0092769 C0.187176011,26.5977142 -0.289457412,25.6847884 0.235283827,24.7359949 C2.41817601,20.7887101 4.58328922,16.7450799 6.67676361,12.8344483 C8.77076092,8.92303131 10.9361356,4.87861565 13.1200736,0.929498246 C13.408459,0.407975978 13.8707124,0.115536032 14.4218606,0.105587314 C15.0320978,0.0890933873 15.669265,0.450912551 15.9945156,0.992594062 C16.2959739,1.4944807 16.2975426,2.06810283 15.9989604,2.60768988 C13.8160682,6.55497463 11.6512164,10.5988667 9.55748059,14.5094982 C7.46348329,18.4206534 5.29837008,22.4650691 3.11443208,26.4141865 C2.78735121,27.0056116 2.28587951,27.2383592 1.78885256,27.2383592" id="Fill-11" fill="#2E3191" mask="url(#mask-2)"></path>
                        </g>
                        <path d="M85.9857677,18.4787749 C85.977924,18.4787749 85.9700803,18.4787749 85.9622367,18.4787749 C85.5083499,18.4871528 85.125579,18.7316818 84.884517,19.1681163 C82.7013633,23.1154011 80.5365116,27.1590313 78.4427757,31.0696629 C76.3490399,34.9810799 74.1836652,39.0254955 71.9997272,42.9743511 C71.5374739,43.8100435 71.9824712,44.5543646 72.5916625,44.8920974 C73.1849051,45.2209287 73.9805143,45.1957951 74.4213283,44.3988505 C76.6044819,40.4515657 78.7690722,36.4079355 80.8628081,32.4973039 C82.9568054,28.5858869 85.1221801,24.5414713 87.3058566,20.5926157 C87.5573768,20.1381163 87.5573768,19.6574362 87.3061181,19.2390664 C87.0315898,18.781949 86.5034496,18.4787749 85.9857677,18.4787749 M73.3245224,45.3500003 C73.0230642,45.3500003 72.7231747,45.2643889 72.4648566,45.1209179 C71.7228458,44.7093552 71.2462124,43.7964294 71.7709536,42.8476359 C73.9538458,38.9003511 76.118959,34.8567209 78.2124334,30.9460893 C80.3064307,27.0346723 82.4718054,22.9902567 84.6557434,19.0411393 C84.9441288,18.519617 85.4063822,18.2271771 85.9575305,18.2172283 C86.5706437,18.2007344 87.2049348,18.5625536 87.5301854,19.1042351 C87.8316437,19.6061217 87.8332124,20.1797439 87.5346302,20.7193309 C85.351738,24.6666157 83.1868863,28.7105077 81.0931504,32.6211393 C78.9991531,36.5322945 76.8340399,40.5767101 74.6501019,44.5258275 C74.323021,45.1172526 73.8215493,45.3500003 73.3245224,45.3500003" id="Fill-14" fill="#2E3191"></path>
                        <path d="M75.763458,19.1680901 C73.5803043,23.1153749 71.4154526,27.1590051 69.3219782,31.0696367 C67.2279809,34.9810537 65.0626062,39.0254694 62.8786682,42.9745868 C62.4166763,43.8102791 62.8616736,44.5543385 63.4706035,44.8920713 C64.0638461,45.2209026 64.8597167,45.1960308 65.3002693,44.3990861 C67.4839458,40.4507541 69.6493205,36.4060767 71.7433178,32.4946596 C73.8367922,28.5840281 76.0016439,24.5406596 78.185059,20.5925895 C78.4363178,20.1380901 78.4365792,19.65741 78.1853205,19.2390402 C77.9066089,18.7751158 77.3687949,18.4732507 76.8414391,18.4789295 C76.3875523,18.4871266 76.0047814,18.7316556 75.763458,19.1680901 M64.2037248,45.3499741 C63.9020051,45.3499741 63.6023771,45.2643628 63.344059,45.1208918 C62.6020482,44.7095908 62.1251534,43.7964032 62.6498946,42.8476097 C64.8330482,38.900325 66.9979,34.8566947 69.0913744,30.9460632 C71.1853717,27.0346462 73.3507464,22.9902305 75.5346844,19.0413749 C75.8233313,18.5195908 76.2855846,18.2271509 76.8367329,18.2172022 C77.4535065,18.2001846 78.0841372,18.5625274 78.4093879,19.1042089 C78.7105846,19.6060955 78.7121534,20.1797177 78.4138326,20.7193047 C76.2312019,24.665804 74.066873,28.7086489 71.9736601,32.6182332 C69.8794013,36.5304356 67.7135038,40.5758985 65.5290429,44.5258013 C65.201962,45.1172265 64.7004903,45.3499741 64.2037248,45.3499741" id="Fill-16" fill="#2E3191"></path>
                        <path d="M21.9668135,40.9039182 L31.1347515,40.9039182 L34.3924873,34.8221099 C36.0592663,31.7123501 37.7268296,28.6031139 39.4014523,25.497543 C40.0608431,24.2743744 40.7212798,23.0519911 41.3848539,21.8311787 C41.6792528,21.2894972 41.8559968,20.9336996 42.0798027,20.4831274 C42.2011181,20.2388602 42.336552,19.9663177 42.5125116,19.6207306 C42.3200803,19.5898372 42.0706518,19.5720343 41.9780965,19.5929789 C41.7176868,19.6526713 41.4546625,19.7558238 41.2002663,19.8555727 L41.1231369,19.8859425 C40.728862,20.039624 40.3243903,20.2260316 39.8498485,20.4721314 C38.8461208,20.9933919 37.8230453,21.6447711 36.8093822,22.4084661 C34.9807623,23.7861018 33.1550183,25.5430977 31.0631127,27.9381206 C27.9423795,31.5110194 25.0485898,35.6352866 21.9668135,40.9039182 L21.9668135,40.9039182 Z M31.2913633,41.1657266 L21.511358,41.1657266 L21.6261369,40.9688467 C24.7594199,35.5913028 27.6955655,31.3958238 30.8662367,27.7655889 C32.9704307,25.3566901 34.808986,23.5879128 36.651986,22.1992812 C37.6771531,21.4266848 38.7127784,20.7674513 39.729579,20.2396456 C40.2124873,19.989095 40.6250642,19.7992839 41.0279671,19.6419371 L41.104835,19.6118291 C41.3681208,19.5086767 41.6405574,19.4018588 41.9195305,19.3377158 C42.1169294,19.2926848 42.5697704,19.3539479 42.7412852,19.4010734 L42.8963283,19.4437482 L42.8231208,19.5869574 C42.6089887,20.0061126 42.4523768,20.3213298 42.3138054,20.5998939 C42.0886922,21.0525606 41.9111639,21.4104526 41.6144119,21.9560613 C40.9510992,23.1768737 40.2906625,24.3989951 39.6315332,25.6216402 C37.9569105,28.7272111 36.2896086,31.8361854 34.6228296,34.9456834 L31.2913633,41.1657266 Z M42.9870534,40.9039182 L54.3391908,40.9039182 C56.2980156,37.3700289 58.273835,33.8364013 60.2943633,30.226064 L60.5396086,29.7880586 C61.5043795,28.0637887 62.4694119,26.3397806 63.4323526,24.6142016 C63.9518647,23.6834729 64.4708539,22.7522205 64.9890588,21.8204445 L66.1452151,19.739068 C66.1203768,19.7346173 66.0997218,19.7312138 66.0863876,19.7296429 C65.7608755,19.6851355 65.2533903,19.6958696 64.9796464,19.7060802 C64.9519321,19.7071274 64.8687892,19.7183852 64.7966275,19.7278103 C64.7370156,19.7356645 64.6842016,19.7422097 64.667207,19.7435188 C64.3738539,19.8042583 64.0483418,19.8985093 63.7176005,20.0210356 C63.0012124,20.2862475 62.3203822,20.6771274 61.6617757,21.0551787 L61.6254334,21.0758615 C58.5318916,22.8517077 55.8692286,24.8168413 53.4855385,27.0833163 C49.976021,30.4205876 46.881172,34.2628872 44.2867488,38.5039209 L42.9870534,40.9039182 Z M54.4931881,41.1657266 L42.5478081,41.1657266 L44.0603283,38.3730167 C46.6699159,34.1068494 49.7794065,30.246485 53.3056571,26.8935053 C55.704773,24.612369 58.3836464,22.6351922 61.49549,20.8488737 L61.5318323,20.827929 C62.1995898,20.4446416 62.8900938,20.0482637 63.6268755,19.7754594 C63.9701666,19.6482205 64.30849,19.5503042 64.6326949,19.4845903 C64.6656383,19.4811868 64.711393,19.4749034 64.7628997,19.4683582 C64.8444739,19.457624 64.9391208,19.4455808 64.970234,19.4445336 C65.252083,19.4337995 65.7765628,19.4230653 66.1214226,19.469929 C66.1512286,19.4741179 66.2103175,19.4843285 66.2769887,19.4974189 L66.351765,19.5126038 L66.3755574,19.5853865 C66.3857542,19.6168035 66.3964739,19.6482205 66.4092852,19.6788521 L66.4302016,19.7285957 L66.3849698,19.8424823 L65.2175709,21.9479452 C64.6991046,22.8797212 64.1801154,23.8109735 63.6606032,24.7422259 C62.6976625,26.4672812 61.7326302,28.191813 60.7675978,29.9158211 L60.5223526,30.3543501 C58.4892744,33.987203 56.5011666,37.5425606 54.5303148,41.0984418 L54.4931881,41.1657266 Z M42.2186356,16.472485 C42.0777111,16.472485 41.9396625,16.4824337 41.8055358,16.5031166 C40.3970749,16.7196321 39.0066544,17.4168278 37.8321962,18.0703015 C35.5083795,19.363373 33.1717515,21.2402772 30.6884469,23.80757 C26.4016221,28.2397239 22.4384792,33.7871814 18.2159725,41.266261 C18.1487784,41.3853838 18.0996248,41.5071247 18.0653741,41.6390761 L18.0447191,41.6830599 C17.724959,42.1247306 17.6799887,42.7826551 17.9349078,43.2829709 C18.162897,43.730925 18.5841019,43.9775484 19.1208701,43.9775484 L29.7851181,43.9775484 L29.6818431,44.1702394 C27.8171423,47.6512435 25.9508728,51.1314621 24.0783283,54.608539 L23.8260237,55.077176 C22.5882933,57.3758534 21.3084685,59.7528116 20.0231531,62.0760991 C19.5608997,62.9117914 20.005897,63.6555889 20.614827,63.9935835 C21.2080695,64.3224148 22.0039402,64.297543 22.4447542,63.5005984 C25.8311261,57.379257 29.100366,51.2966632 32.9675547,44.0466659 L33.0044199,43.9775484 L37.818862,43.9775484 L37.7137569,44.1710248 C36.4904065,46.4225768 35.2254846,48.7508386 33.9370318,51.0793622 C33.4747784,51.9150545 33.9195143,52.6588521 34.5281827,52.9965849 C35.1214253,53.3259398 35.917296,53.301068 36.3586329,52.5041233 C37.7053903,50.0703528 39.132676,47.4616942 40.9869186,44.0458804 L41.0240453,43.9775484 L55.3379509,43.9775484 C55.9131531,43.9775484 56.3631181,43.6843231 56.5722825,43.1732731 L56.5884927,43.1449978 C56.6300642,43.0889709 56.6700668,43.030064 56.7069321,42.9638265 C58.7891639,39.2034729 60.9231639,35.3899722 62.9870938,31.7018777 L64.4180399,29.1445336 C65.6879294,26.8738696 66.956773,24.6021584 68.2198647,22.3275673 L68.3979159,22.0102556 C69.1323445,20.7088062 69.8916113,19.3631112 68.8986032,17.9637455 C67.9476895,16.6238103 65.7959105,16.5994621 65.1587434,16.6235484 C62.6234092,16.7204175 60.255145,18.2231976 58.1655925,19.5489951 L57.939172,19.6924661 C55.9108,20.9776834 53.9049132,22.5252327 51.9774631,24.2921773 L51.4025224,24.8191976 L51.7743121,24.1332596 C54.0215224,19.9862151 56.269517,15.8396942 58.5219563,11.6955296 L59.0715358,10.6844256 C60.3469159,8.33679001 61.6656976,5.90904103 62.9813418,3.53129744 C63.4435951,2.69612874 62.9988593,1.95206937 62.3899294,1.61433657 C61.7972097,1.28498165 61.0008162,1.31011525 60.5597407,2.10705992 C58.0427084,6.65545668 55.5275062,11.3046497 53.094924,15.8009466 C52.3787973,17.1243879 51.6629321,18.4478291 50.9457596,19.770485 L47.9785008,25.2451598 C45.8408404,29.1898265 43.7026571,33.1347549 41.5631666,37.0786362 C40.758145,38.3997212 40.0075062,39.7485579 39.3287677,41.0939911 L39.2926868,41.1657266 L34.5033445,41.1657266 L35.094234,40.0567063 C37.5676032,35.4143204 40.1254226,30.6138022 42.6675547,25.907535 C43.3876032,24.5741449 44.108959,23.242064 44.8360668,21.9126011 C44.920517,21.7581341 45.0128108,21.6020964 45.1056275,21.4450113 C45.3346625,21.0572731 45.5718027,20.6564445 45.7069752,20.2477617 C45.9723526,19.4447954 45.7822744,18.6041287 45.1717757,17.8807522 C44.4488512,17.0241152 43.2634119,16.472485 42.2186356,16.472485 L42.2186356,16.472485 Z M21.3479482,64.4514864 C21.0462286,64.4514864 20.7463391,64.365875 20.488021,64.222404 C19.7460102,63.8111031 19.2696383,62.8979155 19.7943795,61.9493838 C21.0789105,59.6271436 22.3584739,57.2509709 23.5956814,54.9530788 L23.8482474,54.4844418 C25.6860183,51.071508 27.5177757,47.655956 29.3482259,44.2393568 L19.1208701,44.2393568 C18.4902394,44.2393568 17.9730803,43.9340883 17.7019509,43.4020937 C17.4031073,42.8156429 17.4506922,42.0747252 17.8185601,41.5495377 C17.8580399,41.4058049 17.9150372,41.2673082 17.9885062,41.1374513 C22.2222555,33.6384742 26.1979482,28.0739992 30.5004604,23.6256132 C33.0020668,21.0392084 35.358827,19.1471193 37.7051288,17.841481 C38.8999806,17.1767495 40.3165466,16.4672489 41.7660561,16.2444499 C42.9789482,16.0580424 44.4961747,16.6748629 45.3715278,17.711624 C46.0429456,18.5072596 46.2502798,19.437203 45.9550965,20.3299695 C45.8110345,20.7656186 45.566835,21.1787522 45.3307407,21.5785336 C45.2392313,21.7330005 45.1485062,21.8861584 45.0653633,22.0385309 C44.338517,23.3672084 43.6174226,24.6992893 42.8976356,26.0318939 C40.355765,30.7376375 37.798207,35.5378939 35.3248377,40.1797563 L34.9391908,40.9039182 L39.1318916,40.9039182 C39.8040938,39.576288 40.5455817,38.2457779 41.3367461,36.9479938 C43.4728377,33.0098723 45.611021,29.0649439 47.7486814,25.1202772 L50.7159402,19.6456024 C51.4331127,18.3229466 52.1489779,16.9995053 52.8651046,15.676064 C55.2979482,11.1795053 57.8134119,6.52978866 60.3309671,1.98008286 C60.8567542,1.02971849 61.8325062,1.00537031 62.5167353,1.38525425 C63.2587461,1.796817 63.7348566,2.70974278 63.2101154,3.65827449 C61.8949941,6.03497085 60.5762124,8.46219622 59.3010938,10.80957 L58.7515143,11.820674 C56.6206518,15.7417779 54.4931881,19.6647144 52.3670318,23.5884364 C54.1313337,22.022037 55.9557704,20.6391652 57.7992933,19.4712381 L58.0257137,19.3277671 C60.1429806,17.9844283 62.5431423,16.4617509 65.1488081,16.3620019 C65.8194415,16.3366065 68.0849536,16.3651436 69.1119509,17.8121584 C70.2009132,19.3468791 69.3639941,20.8302853 68.6256437,22.1393271 L68.4483768,22.455068 C67.1850237,24.7299209 65.9161801,27.0013703 64.6460291,29.2725579 L64.5320345,29.2086767 L64.6460291,29.2725579 L63.215083,31.829902 C61.1514146,35.5177347 59.0174146,39.3309735 56.9357057,43.0908035 C56.8959644,43.1622772 56.8528243,43.2269439 56.8078539,43.2879452 C56.5537191,43.8929843 56.0187811,44.2393568 55.3379509,44.2393568 L41.1796113,44.2393568 C39.3428863,47.6224445 37.9255358,50.2127765 36.5874065,52.6308386 C36.0616194,53.5809412 35.0856059,53.6052893 34.4016383,53.2256672 C33.6598889,52.8141045 33.1832555,51.9011787 33.7082582,50.952647 C34.9593229,48.6916699 36.1886868,46.4301692 37.3788323,44.2393568 L33.1610318,44.2393568 C29.3095305,51.4597698 26.0499644,57.524037 22.6735278,63.6273136 C22.3464469,64.2187387 21.8449752,64.4514864 21.3479482,64.4514864 L21.3479482,64.4514864 Z" id="Fill-18" fill="#2E3191"></path>
                        <g id="Group-22" transform="translate(0.000000, 18.111641)">
                            <mask id="mask-4" fill="white">
                                <use xlink:href="#path-3"></use>
                            </mask>
                            <g id="Clip-21"></g>
                            <path d="M24.7432358,0.367133873 C24.7353922,0.367133873 24.7275485,0.367133873 24.7197049,0.367133873 C24.2658181,0.375511741 23.8830472,0.620040756 23.6417237,1.0564753 C19.4066671,8.71201377 15.2228558,16.5644321 11.177093,24.1584456 C9.02060782,28.206003 6.79091509,32.3910097 4.57952426,36.4969503 L4.3165,36.9854848 C3.08242992,39.277617 1.8062655,41.6475063 0.524610512,43.9645104 C0.273351752,44.4190097 0.273090296,44.8994281 0.524349057,45.3177978 C0.803060647,45.7819841 1.33041644,46.0830637 1.86823046,46.0781501 C2.32211725,46.0699733 2.70488814,45.8251825 2.94621159,45.3890097 C7.18126819,37.7334713 11.3650795,29.8807911 15.4108423,22.2870394 C17.5673275,18.2394821 19.7970202,14.0542135 22.0084111,9.94853468 L22.2714353,9.45973846 C23.5055054,7.16786802 24.7816698,4.79771687 26.0633248,2.48097463 C26.3145836,2.0264753 26.314845,1.54579514 26.0635863,1.12742537 C25.789058,0.670307962 25.2609178,0.367133873 24.7432358,0.367133873 M1.84522237,46.3401595 C1.23864555,46.3401595 0.62056469,45.9861946 0.300281671,45.4526291 C-0.00117654987,44.9510043 -0.00248382749,44.3773822 0.295836927,43.8377951 C1.576969,41.5221001 2.85261051,39.1527344 4.08641914,36.8613876 L4.34970485,36.3725914 C6.56057278,32.2674362 8.79000404,28.0824294 10.9462278,24.0351339 C14.9927749,16.440335 19.1768477,8.58686937 23.4129501,0.929498246 C23.701597,0.407975978 24.1641119,0.115274224 24.7152601,0.105459033 C25.3278504,0.0977330634 25.9626644,0.451174359 26.2876536,0.992594062 C26.5891119,1.4944807 26.5904191,2.06810283 26.2920984,2.60768988 C25.0109663,4.92338489 23.7353248,7.29275061 22.5015162,9.58409744 L22.2382305,10.0726318 C20.0273625,14.1780489 17.7979313,18.3630556 15.6414461,22.4100893 C11.5951604,30.0051501 7.41082615,37.8586157 3.17498518,45.515725 C2.88633827,46.0372472 2.42382345,46.3302108 1.8726752,46.3401595 C1.86352426,46.3401595 1.85437332,46.3401595 1.84522237,46.3401595" id="Fill-20" fill="#2E3191" mask="url(#mask-4)"></path>
                        </g>
                        <path d="M93.5578857,18.0795433 C89.1907941,25.9759455 85.0401876,33.9896378 80.673096,41.8860399 C79.7153844,43.6176405 82.3652361,45.1699023 83.3234706,43.4372545 C87.6905623,35.5408524 91.8414302,27.5271601 96.2082604,19.6307579 C97.165972,17.8991574 94.5161202,16.3468955 93.5578857,18.0795433" id="Fill-23" fill="#2E3191"></path>
                        <path d="M84.5652275,18.0795433 C80.1981358,25.9759455 76.0475294,33.9896378 71.6804377,41.8860399 C70.7227261,43.6176405 73.3725779,45.1699023 74.3308124,43.4372545 C78.697904,35.5408524 82.848772,27.5271601 87.2156022,19.6307579 C88.1733137,17.8991574 85.523462,16.3468955 84.5652275,18.0795433" id="Fill-25" fill="#2E3191"></path>
                        <path d="M75.4442992,18.0795433 C71.0772075,25.9759455 66.9266011,33.9896378 62.5597709,41.8860399 C61.6017978,43.6176405 64.2516496,45.1699023 65.2098841,43.4372545 C69.5769757,35.5408524 73.7278437,27.5271601 78.0946739,19.6307579 C79.0523854,17.8991574 76.4025337,16.3468955 75.4442992,18.0795433" id="Fill-27" fill="#2E3191"></path>
                        <g id="Group-31" transform="translate(17.256065, 0.046864)">
                            <mask id="mask-6" fill="white">
                                <use xlink:href="#path-5"></use>
                            </mask>
                            <g id="Clip-30"></g>
                            <path d="M25.3067509,39.962848 C25.7758022,39.0962623 26.2453763,38.2299385 26.7144275,37.3633528 C29.2793062,33.1704918 32.3788615,29.2975606 35.9346566,25.9165673 C38.4163925,23.5568885 41.1339612,21.5928022 44.0996512,19.8905242 C44.7817887,19.4988588 45.4717698,19.1001247 46.2114275,18.8262731 C46.5309261,18.7079358 46.8629747,18.6089722 47.1978992,18.540902 C47.2358102,18.5382839 47.463538,18.5052961 47.5139989,18.5032016 C47.8802981,18.4895876 48.3435973,18.4869695 48.6429639,18.5278116 C48.6712011,18.5317387 48.727414,18.5411638 48.7904248,18.5539924 C48.8016674,18.588813 48.8136943,18.6233717 48.8280744,18.6579304 C48.8191849,18.6801841 48.810034,18.7011287 48.8011445,18.7260005 C48.6727698,18.9574391 48.5443951,19.1888777 48.4160205,19.4203163 C48.1582253,19.8845026 47.9006916,20.348427 47.642635,20.8123514 C47.1241687,21.7441274 46.6051795,22.6753798 46.0856674,23.6061085 C45.0411526,25.4777765 43.9942846,27.3478737 42.9476782,29.2182327 C40.9449288,32.7966294 38.9432253,36.3758116 36.955379,39.962848 L25.3067509,39.962848 Z M8.80472399,39.962848 L4.27814447,39.962848 C6.98028733,35.3254364 9.97343019,30.8220707 13.5036027,26.7797495 C15.2530016,24.7771773 17.1417563,22.8353447 19.2697429,21.2320302 C20.2355596,20.5044648 21.255759,19.8410424 22.329034,19.2839142 C22.7484086,19.0663514 23.1745811,18.8637117 23.6146108,18.6919655 C23.8972442,18.5817441 24.1913817,18.4615741 24.4881337,18.3935039 C24.6468372,18.3571126 25.0722253,18.4076416 25.2458318,18.4552907 C24.6831795,19.5567185 24.5161094,19.9434094 24.0386916,20.8215147 C23.375379,22.0423271 22.7149423,23.2647104 22.0555515,24.4876173 C20.3811903,27.5929263 18.713627,30.7021625 17.046848,33.8119223 C15.9479504,35.8618818 14.8500987,37.9123649 13.7522469,39.962848 L8.80472399,39.962848 Z M47.0710933,28.1367023 C48.3415057,25.8657765 49.6100879,23.5940653 50.873441,21.3194742 C51.6656512,19.8923568 52.6683332,18.3997873 51.5445973,16.8161085 C50.7280717,15.6659843 49.0058642,15.3704027 47.693096,15.4206699 C45.0309558,15.5225134 42.5944518,17.1250424 40.4084221,18.5100086 C38.274945,19.8614634 36.2870987,21.419485 34.4284113,23.1235957 C36.6756216,18.9765511 38.9236162,14.8300302 41.1760555,10.6861274 C42.6566782,7.96201134 44.1339019,5.23580081 45.6349181,2.52294251 C46.5931526,0.791080162 43.9430394,-0.76065803 42.9845434,0.971466127 C39.739096,6.83702078 36.5647644,12.7426321 33.3700394,18.6362003 C30.2425084,24.4056713 27.1168075,30.1759277 23.9874464,35.9440896 C23.1897456,37.2531314 22.4425057,38.5930667 21.7512173,39.962848 L17.2604571,39.962848 C19.9388075,34.9361274 22.6153278,29.9083595 25.3219154,24.897871 C26.0417024,23.5647428 26.7627968,22.2326618 27.4899046,20.9037225 C27.7866566,20.3609938 28.1757024,19.8054364 28.3702253,19.2168912 C29.12191,16.9423001 26.3243358,14.9944459 24.3249854,15.3018089 C22.9241067,15.5170154 21.5373466,16.1998116 20.3079827,16.8839169 C17.6272792,18.3754391 15.2579693,20.448176 13.1336431,22.6444864 C8.15239245,27.7947806 4.15316873,33.9098386 0.641559569,40.1298818 C0.564430189,40.2662839 0.512400539,40.4016389 0.478149865,40.5343757 C-0.165553639,41.4232151 0.22662965,43.0364783 1.6601903,43.0364783 L12.1058615,43.0364783 C10.2411606,46.5174823 8.37489111,49.9977009 6.50234663,53.4745161 C5.15951105,55.9679789 3.81876712,58.4627509 2.4479558,60.9407671 C1.48998275,62.6723676 4.1398345,64.2246294 5.09833046,62.4919816 C8.66719838,56.0407617 12.1516162,49.5424162 15.6219154,43.0364783 L20.1380367,43.0364783 C18.8851418,45.3422246 17.6322469,47.6479709 16.3618345,49.9440302 C15.4036,51.6756308 18.0534518,53.2278926 19.0122092,51.4952448 C20.568131,48.6831611 22.1075811,45.8613906 23.6410178,43.0364783 L30.732476,43.0364783 L37.8772712,43.0364783 C38.5771876,43.0364783 39.0281984,42.6497873 39.2323951,42.1510424 C39.2773655,42.0905646 39.3207671,42.0266834 39.3602469,41.9552097 C41.9157132,37.3405754 44.4962792,32.7400788 47.0710933,28.1367023 L47.0710933,28.1367023 Z" id="Fill-29" fill="#2E3191" mask="url(#mask-6)"></path>
                        </g>
                        <path d="M25.9730181,19.6308364 C26.9309911,17.8992359 24.2808779,16.3469741 23.3226434,18.0796219 C16.8296569,29.8162291 10.6195652,41.7120159 4.25992102,53.5214059 C2.91708544,56.0148688 1.57634151,58.5093789 0.205530189,60.987657 C-0.752442857,62.7192575 1.89740889,64.2715193 2.85590485,62.5388715 C9.34862992,50.8022642 15.5587216,38.9064775 21.9186272,27.0970874 C23.2612013,24.6036246 24.6022067,22.1088526 25.9730181,19.6308364" id="Fill-32" fill="#2E3191"></path>
                    </g>
                </g>
            </g>
        </g>
    </g>
</svg>